<?xml version="1.0" encoding="utf-8" standalone="no"?>
<!DOCTYPE svg PUBLIC "-//W3C//DTD SVG 1.1//EN"
  "http://www.w3.org/Graphics/SVG/1.1/DTD/svg11.dtd">
<svg xmlns:xlink="http://www.w3.org/1999/xlink" width="460.8pt" height="345.6pt" viewBox="0 0 460.8 345.6" xmlns="http://www.w3.org/2000/svg" version="1.1">
 <metadata>
  <rdf:RDF xmlns:dc="http://purl.org/dc/elements/1.1/" xmlns:cc="http://creativecommons.org/ns#" xmlns:rdf="http://www.w3.org/1999/02/22-rdf-syntax-ns#">
   <cc:Work>
    <dc:type rdf:resource="http://purl.org/dc/dcmitype/StillImage"/>
    <dc:date>2026-04-14T13:12:04.919898</dc:date>
    <dc:format>image/svg+xml</dc:format>
    <dc:creator>
     <cc:Agent>
      <dc:title>Matplotlib v3.10.6, https://matplotlib.org/</dc:title>
     </cc:Agent>
    </dc:creator>
   </cc:Work>
  </rdf:RDF>
 </metadata>
 <defs>
  <style type="text/css">*{stroke-linejoin: round; stroke-linecap: butt}</style>
 </defs>
 <g id="figure_1">
  <g id="patch_1">
   <path d="M 0 345.6 
L 460.8 345.6 
L 460.8 0 
L 0 0 
z
" style="fill: #ffffff"/>
  </g>
  <g id="axes_1">
   <g id="patch_2">
    <path d="M 57.6 307.584 
L 414.72 307.584 
L 414.72 41.472 
L 57.6 41.472 
z
" style="fill: #ffffff"/>
   </g>
   <g id="FillBetweenPolyCollection_1">
    <defs>
     <path id="m74079a5ce8" d="M 73.832727 -190.293052 
L 73.832727 -77.606416 
L 75.765195 -75.196082 
L 77.697662 -77.793509 
L 79.63013 -75.550583 
L 81.562597 -93.129254 
L 83.495065 -79.503571 
L 85.427532 -77.211296 
L 87.36 -80.259164 
L 89.292468 -79.911535 
L 91.224935 -77.27352 
L 93.157403 -78.162907 
L 95.08987 -79.982861 
L 97.022338 -78.257628 
L 98.954805 -81.257278 
L 100.887273 -83.797166 
L 102.81974 -81.008829 
L 104.752208 -79.691141 
L 106.684675 -89.439482 
L 108.617143 -85.230724 
L 110.54961 -81.837059 
L 112.482078 -86.730714 
L 114.414545 -85.879865 
L 116.347013 -87.17423 
L 118.279481 -86.895036 
L 120.211948 -81.744341 
L 122.144416 -80.060823 
L 124.076883 -88.600158 
L 126.009351 -74.929214 
L 127.941818 -77.614116 
L 129.874286 -77.025462 
L 131.806753 -78.028765 
L 133.739221 -77.61406 
L 135.671688 -78.2514 
L 137.604156 -74.916816 
L 139.536623 -76.292427 
L 141.469091 -76.264059 
L 143.401558 -72.085602 
L 145.334026 -72.119608 
L 147.266494 -69.275287 
L 149.198961 -69.603064 
L 151.131429 -69.740741 
L 153.063896 -69.697181 
L 154.996364 -69.337473 
L 156.928831 -72.512925 
L 158.861299 -73.474036 
L 160.793766 -72.304087 
L 162.726234 -69.32739 
L 164.658701 -67.417723 
L 166.591169 -70.946474 
L 168.523636 -72.686216 
L 170.456104 -69.145488 
L 172.388571 -71.042394 
L 174.321039 -75.898162 
L 176.253506 -74.723573 
L 178.185974 -71.705499 
L 180.118442 -65.780854 
L 182.050909 -73.882267 
L 183.983377 -85.519438 
L 185.915844 -75.339678 
L 187.848312 -70.077128 
L 189.780779 -74.892614 
L 191.713247 -72.669793 
L 193.645714 -75.626246 
L 195.578182 -74.873267 
L 197.510649 -74.964166 
L 199.443117 -74.022728 
L 201.375584 -78.301981 
L 203.308052 -74.946436 
L 205.240519 -77.895187 
L 207.172987 -80.980344 
L 209.105455 -82.427022 
L 211.037922 -77.796808 
L 212.97039 -75.957408 
L 214.902857 -80.339362 
L 216.835325 -79.725234 
L 218.767792 -77.644007 
L 220.70026 -80.373215 
L 222.632727 -77.196303 
L 224.565195 -78.969681 
L 226.497662 -75.554413 
L 228.43013 -73.028914 
L 230.362597 -72.289163 
L 232.295065 -72.623808 
L 234.227532 -76.662085 
L 236.16 -78.358173 
L 238.092468 -78.699523 
L 240.024935 -78.281567 
L 241.957403 -81.802713 
L 243.88987 -80.384616 
L 245.822338 -73.674306 
L 247.754805 -72.783305 
L 249.687273 -70.674125 
L 251.61974 -69.867463 
L 253.552208 -69.246669 
L 255.484675 -66.912716 
L 257.417143 -64.486948 
L 259.34961 -66.849863 
L 261.282078 -67.516956 
L 263.214545 -68.632542 
L 265.147013 -68.960261 
L 267.079481 -73.472375 
L 269.011948 -69.699845 
L 270.944416 -70.934796 
L 272.876883 -70.167448 
L 274.809351 -76.244634 
L 276.741818 -75.387841 
L 278.674286 -77.37217 
L 280.606753 -81.486324 
L 282.539221 -79.293117 
L 284.471688 -98.088824 
L 286.404156 -85.266639 
L 288.336623 -75.667693 
L 290.269091 -79.590401 
L 292.201558 -74.677308 
L 294.134026 -73.664037 
L 296.066494 -73.976853 
L 297.998961 -74.814404 
L 299.931429 -76.072184 
L 301.863896 -76.369611 
L 303.796364 -76.903633 
L 305.728831 -78.95959 
L 307.661299 -80.208732 
L 309.593766 -86.476255 
L 311.526234 -78.37588 
L 313.458701 -79.143474 
L 315.391169 -79.112202 
L 317.323636 -78.577079 
L 319.256104 -78.935862 
L 321.188571 -77.852318 
L 323.121039 -76.468957 
L 325.053506 -77.782679 
L 326.985974 -81.436335 
L 328.918442 -75.368 
L 330.850909 -75.781204 
L 332.783377 -74.898448 
L 334.715844 -73.740695 
L 336.648312 -74.146068 
L 338.580779 -73.847251 
L 340.513247 -72.36585 
L 342.445714 -72.653485 
L 344.378182 -71.508443 
L 346.310649 -71.106621 
L 348.243117 -69.567757 
L 350.175584 -68.642058 
L 352.108052 -69.990367 
L 354.040519 -68.736668 
L 355.972987 -70.69234 
L 357.905455 -74.358588 
L 359.837922 -74.345074 
L 361.77039 -75.535021 
L 363.702857 -75.75877 
L 365.635325 -70.371508 
L 367.567792 -77.566602 
L 369.50026 -77.007745 
L 371.432727 -74.573763 
L 373.365195 -72.999616 
L 375.297662 -79.595802 
L 377.23013 -82.538406 
L 379.162597 -78.734909 
L 381.095065 -82.971675 
L 383.027532 -81.515321 
L 384.96 -97.606685 
L 386.892468 -85.942921 
L 388.824935 -79.677458 
L 390.757403 -80.294422 
L 392.68987 -82.218588 
L 394.622338 -81.165406 
L 396.554805 -80.8926 
L 398.487273 -82.034952 
L 398.487273 -206.679677 
L 398.487273 -206.679677 
L 396.554805 -193.064937 
L 394.622338 -202.501863 
L 392.68987 -208.355923 
L 390.757403 -200.351009 
L 388.824935 -199.404889 
L 386.892468 -225.753724 
L 384.96 -292.032 
L 383.027532 -204.037194 
L 381.095065 -211.091627 
L 379.162597 -184.520428 
L 377.23013 -200.772786 
L 375.297662 -189.084074 
L 373.365195 -155.632156 
L 371.432727 -164.339468 
L 369.50026 -180.279676 
L 367.567792 -176.048048 
L 365.635325 -148.466135 
L 363.702857 -174.299651 
L 361.77039 -184.658146 
L 359.837922 -171.42728 
L 357.905455 -175.289964 
L 355.972987 -153.135819 
L 354.040519 -143.726446 
L 352.108052 -147.518937 
L 350.175584 -141.61806 
L 348.243117 -146.347135 
L 346.310649 -154.676494 
L 344.378182 -154.170216 
L 342.445714 -159.358283 
L 340.513247 -167.828764 
L 338.580779 -169.244958 
L 336.648312 -170.354636 
L 334.715844 -172.090356 
L 332.783377 -179.570532 
L 330.850909 -173.020775 
L 328.918442 -173.403004 
L 326.985974 -187.63843 
L 325.053506 -189.655349 
L 323.121039 -194.396056 
L 321.188571 -196.969417 
L 319.256104 -192.109337 
L 317.323636 -196.710037 
L 315.391169 -187.337063 
L 313.458701 -181.327382 
L 311.526234 -190.744452 
L 309.593766 -236.099156 
L 307.661299 -191.997669 
L 305.728831 -179.096222 
L 303.796364 -184.709114 
L 301.863896 -179.336411 
L 299.931429 -192.916307 
L 297.998961 -181.980452 
L 296.066494 -168.716213 
L 294.134026 -171.446566 
L 292.201558 -174.939687 
L 290.269091 -198.18918 
L 288.336623 -177.188274 
L 286.404156 -218.095867 
L 284.471688 -290.231259 
L 282.539221 -201.510333 
L 280.606753 -211.167113 
L 278.674286 -193.322124 
L 276.741818 -180.466693 
L 274.809351 -182.945407 
L 272.876883 -148.934072 
L 270.944416 -151.033365 
L 269.011948 -150.051083 
L 267.079481 -179.03888 
L 265.147013 -136.130929 
L 263.214545 -142.353577 
L 261.282078 -139.203645 
L 259.34961 -136.313527 
L 257.417143 -130.275625 
L 255.484675 -132.082606 
L 253.552208 -145.817301 
L 251.61974 -156.165728 
L 249.687273 -154.745431 
L 247.754805 -165.513876 
L 245.822338 -170.502587 
L 243.88987 -198.770663 
L 241.957403 -208.748492 
L 240.024935 -182.625978 
L 238.092468 -188.419829 
L 236.16 -182.76713 
L 234.227532 -192.650961 
L 232.295065 -159.733381 
L 230.362597 -162.892888 
L 228.43013 -165.677805 
L 226.497662 -176.659144 
L 224.565195 -180.13026 
L 222.632727 -185.544117 
L 220.70026 -190.59035 
L 218.767792 -181.817604 
L 216.835325 -197.869299 
L 214.902857 -193.100758 
L 212.97039 -175.068326 
L 211.037922 -190.350421 
L 209.105455 -212.32541 
L 207.172987 -205.893213 
L 205.240519 -187.718406 
L 203.308052 -180.022111 
L 201.375584 -194.087891 
L 199.443117 -177.908806 
L 197.510649 -167.567539 
L 195.578182 -174.835097 
L 193.645714 -173.901358 
L 191.713247 -183.211801 
L 189.780779 -181.063907 
L 187.848312 -154.17887 
L 185.915844 -178.348192 
L 183.983377 -234.024908 
L 182.050909 -166.233682 
L 180.118442 -130.27871 
L 178.185974 -158.11389 
L 176.253506 -177.510633 
L 174.321039 -177.292373 
L 172.388571 -155.806748 
L 170.456104 -147.172562 
L 168.523636 -161.1947 
L 166.591169 -152.370264 
L 164.658701 -137.232992 
L 162.726234 -138.167902 
L 160.793766 -159.491475 
L 158.861299 -159.938983 
L 156.928831 -169.150355 
L 154.996364 -145.091057 
L 153.063896 -146.296509 
L 151.131429 -146.9435 
L 149.198961 -143.723826 
L 147.266494 -139.779348 
L 145.334026 -155.242928 
L 143.401558 -158.738934 
L 141.469091 -186.097516 
L 139.536623 -181.092323 
L 137.604156 -175.134152 
L 135.671688 -190.247556 
L 133.739221 -190.878 
L 131.806753 -182.675381 
L 129.874286 -192.204675 
L 127.941818 -194.658877 
L 126.009351 -186.213454 
L 124.076883 -224.618067 
L 122.144416 -192.400711 
L 120.211948 -218.189531 
L 118.279481 -233.655182 
L 116.347013 -227.348182 
L 114.414545 -217.893029 
L 112.482078 -238.639728 
L 110.54961 -208.256245 
L 108.617143 -229.577346 
L 106.684675 -249.951749 
L 104.752208 -207.710131 
L 102.81974 -205.315117 
L 100.887273 -218.087286 
L 98.954805 -198.940853 
L 97.022338 -187.879222 
L 95.08987 -204.588208 
L 93.157403 -193.760419 
L 91.224935 -186.18601 
L 89.292468 -198.327562 
L 87.36 -183.91519 
L 85.427532 -190.263605 
L 83.495065 -193.873464 
L 81.562597 -258.281489 
L 79.63013 -183.047815 
L 77.697662 -181.981312 
L 75.765195 -177.481428 
L 73.832727 -190.293052 
z
" style="stroke: #1f77b4; stroke-opacity: 0.2"/>
    </defs>
    <g clip-path="url(#p4420e0a30a)">
     <use xlink:href="#m74079a5ce8" x="0" y="345.6" style="fill: #1f77b4; fill-opacity: 0.2; stroke: #1f77b4; stroke-opacity: 0.2"/>
    </g>
   </g>
   <g id="FillBetweenPolyCollection_2">
    <defs>
     <path id="mee15091d26" d="M 73.832727 -202.641782 
L 73.832727 -85.01447 
L 75.765195 -80.220926 
L 77.697662 -80.230758 
L 79.63013 -76.636598 
L 81.562597 -97.670313 
L 83.495065 -83.262976 
L 85.427532 -74.610599 
L 87.36 -76.778529 
L 89.292468 -85.637377 
L 91.224935 -77.658464 
L 93.157403 -77.928191 
L 95.08987 -82.198806 
L 97.022338 -78.554589 
L 98.954805 -79.206655 
L 100.887273 -79.603949 
L 102.81974 -80.484238 
L 104.752208 -77.857055 
L 106.684675 -93.556978 
L 108.617143 -82.892458 
L 110.54961 -78.318424 
L 112.482078 -80.958626 
L 114.414545 -79.54635 
L 116.347013 -82.256135 
L 118.279481 -81.912474 
L 120.211948 -85.343702 
L 122.144416 -79.032491 
L 124.076883 -85.295306 
L 126.009351 -80.16295 
L 127.941818 -80.608364 
L 129.874286 -79.851998 
L 131.806753 -82.031004 
L 133.739221 -83.347818 
L 135.671688 -83.774237 
L 137.604156 -81.157419 
L 139.536623 -80.364286 
L 141.469091 -85.455988 
L 143.401558 -87.821937 
L 145.334026 -85.066285 
L 147.266494 -85.074597 
L 149.198961 -85.429639 
L 151.131429 -84.069642 
L 153.063896 -82.413931 
L 154.996364 -78.551633 
L 156.928831 -85.399628 
L 158.861299 -78.837406 
L 160.793766 -79.432733 
L 162.726234 -76.351004 
L 164.658701 -72.480603 
L 166.591169 -80.878032 
L 168.523636 -77.525096 
L 170.456104 -72.726521 
L 172.388571 -75.701533 
L 174.321039 -90.142861 
L 176.253506 -85.936183 
L 178.185974 -84.761676 
L 180.118442 -87.029714 
L 182.050909 -83.456837 
L 183.983377 -104.368595 
L 185.915844 -84.840294 
L 187.848312 -81.627687 
L 189.780779 -85.396441 
L 191.713247 -82.558284 
L 193.645714 -83.386488 
L 195.578182 -86.545396 
L 197.510649 -84.094211 
L 199.443117 -80.586588 
L 201.375584 -81.142897 
L 203.308052 -83.284907 
L 205.240519 -87.590462 
L 207.172987 -93.658428 
L 209.105455 -99.121373 
L 211.037922 -88.079594 
L 212.97039 -84.146105 
L 214.902857 -88.087291 
L 216.835325 -84.53767 
L 218.767792 -79.683838 
L 220.70026 -82.565252 
L 222.632727 -81.803945 
L 224.565195 -85.297606 
L 226.497662 -80.638503 
L 228.43013 -77.440461 
L 230.362597 -78.516097 
L 232.295065 -76.650057 
L 234.227532 -78.388686 
L 236.16 -79.542681 
L 238.092468 -76.180198 
L 240.024935 -76.106947 
L 241.957403 -78.786469 
L 243.88987 -77.443109 
L 245.822338 -74.830295 
L 247.754805 -73.224968 
L 249.687273 -75.23205 
L 251.61974 -76.513375 
L 253.552208 -72.816739 
L 255.484675 -71.184981 
L 257.417143 -68.353137 
L 259.34961 -68.588657 
L 261.282078 -70.678472 
L 263.214545 -70.414398 
L 265.147013 -68.844346 
L 267.079481 -75.729791 
L 269.011948 -75.715005 
L 270.944416 -76.267085 
L 272.876883 -75.880061 
L 274.809351 -87.173971 
L 276.741818 -84.827934 
L 278.674286 -82.994466 
L 280.606753 -87.253071 
L 282.539221 -80.143007 
L 284.471688 -102.518677 
L 286.404156 -80.728533 
L 288.336623 -78.285881 
L 290.269091 -81.055021 
L 292.201558 -78.3906 
L 294.134026 -76.313302 
L 296.066494 -76.942523 
L 297.998961 -74.896603 
L 299.931429 -75.624444 
L 301.863896 -78.647416 
L 303.796364 -75.996627 
L 305.728831 -77.269052 
L 307.661299 -79.293374 
L 309.593766 -84.987623 
L 311.526234 -75.764503 
L 313.458701 -76.867701 
L 315.391169 -79.184045 
L 317.323636 -75.577642 
L 319.256104 -76.710902 
L 321.188571 -80.572174 
L 323.121039 -78.355292 
L 325.053506 -78.588601 
L 326.985974 -78.389281 
L 328.918442 -77.661112 
L 330.850909 -78.891941 
L 332.783377 -77.710919 
L 334.715844 -77.864799 
L 336.648312 -77.972947 
L 338.580779 -72.341946 
L 340.513247 -71.908248 
L 342.445714 -71.593376 
L 344.378182 -72.21389 
L 346.310649 -72.29942 
L 348.243117 -71.401497 
L 350.175584 -72.038697 
L 352.108052 -69.170261 
L 354.040519 -72.153736 
L 355.972987 -71.847639 
L 357.905455 -77.109157 
L 359.837922 -75.216887 
L 361.77039 -75.564561 
L 363.702857 -69.904599 
L 365.635325 -67.793945 
L 367.567792 -78.566558 
L 369.50026 -79.392993 
L 371.432727 -74.883007 
L 373.365195 -72.231812 
L 375.297662 -82.420195 
L 377.23013 -78.761231 
L 379.162597 -79.41519 
L 381.095065 -84.445621 
L 383.027532 -81.428879 
L 384.96 -99.953468 
L 386.892468 -80.070515 
L 388.824935 -79.8471 
L 390.757403 -79.300068 
L 392.68987 -78.901019 
L 394.622338 -78.446795 
L 396.554805 -79.941214 
L 398.487273 -80.289298 
L 398.487273 -183.645814 
L 398.487273 -183.645814 
L 396.554805 -173.826493 
L 394.622338 -176.266231 
L 392.68987 -177.095912 
L 390.757403 -168.536167 
L 388.824935 -166.733596 
L 386.892468 -177.122469 
L 384.96 -284.707995 
L 383.027532 -184.933507 
L 381.095065 -200.018442 
L 379.162597 -181.243563 
L 377.23013 -171.256122 
L 375.297662 -193.03462 
L 373.365195 -150.06097 
L 371.432727 -161.429885 
L 369.50026 -179.504309 
L 367.567792 -170.066527 
L 365.635325 -134.892065 
L 363.702857 -135.955114 
L 361.77039 -163.297955 
L 359.837922 -158.820976 
L 357.905455 -157.968461 
L 355.972987 -151.220794 
L 354.040519 -145.735816 
L 352.108052 -136.680639 
L 350.175584 -143.103463 
L 348.243117 -142.978803 
L 346.310649 -144.801617 
L 344.378182 -141.124444 
L 342.445714 -146.860608 
L 340.513247 -140.912023 
L 338.580779 -145.400457 
L 336.648312 -168.454725 
L 334.715844 -176.870155 
L 332.783377 -176.033458 
L 330.850909 -174.687837 
L 328.918442 -167.726376 
L 326.985974 -171.271776 
L 325.053506 -175.531297 
L 323.121039 -175.501058 
L 321.188571 -177.486698 
L 319.256104 -162.074412 
L 317.323636 -164.841775 
L 315.391169 -178.275738 
L 313.458701 -162.90985 
L 311.526234 -152.432772 
L 309.593766 -204.162256 
L 307.661299 -176.096522 
L 305.728831 -164.206638 
L 303.796364 -165.326018 
L 301.863896 -174.301689 
L 299.931429 -154.754599 
L 297.998961 -156.088848 
L 296.066494 -161.12325 
L 294.134026 -161.398578 
L 292.201558 -174.905686 
L 290.269091 -177.315325 
L 288.336623 -163.506775 
L 286.404156 -190.787326 
L 284.471688 -272.208656 
L 282.539221 -178.895869 
L 280.606753 -208.04875 
L 278.674286 -191.051488 
L 276.741818 -206.492998 
L 274.809351 -207.391501 
L 272.876883 -161.755342 
L 270.944416 -171.141498 
L 269.011948 -167.306934 
L 267.079481 -161.097743 
L 265.147013 -133.679762 
L 263.214545 -138.246591 
L 261.282078 -136.120357 
L 259.34961 -130.448818 
L 257.417143 -127.747877 
L 255.484675 -140.144161 
L 253.552208 -146.604655 
L 251.61974 -157.927399 
L 249.687273 -150.038696 
L 247.754805 -148.638315 
L 245.822338 -158.360629 
L 243.88987 -171.225202 
L 241.957403 -168.39316 
L 240.024935 -169.394944 
L 238.092468 -161.174893 
L 236.16 -172.666224 
L 234.227532 -164.985268 
L 232.295065 -167.054824 
L 230.362597 -175.480776 
L 228.43013 -164.224131 
L 226.497662 -179.20976 
L 224.565195 -202.766333 
L 222.632727 -187.220471 
L 220.70026 -193.644129 
L 218.767792 -180.278801 
L 216.835325 -196.733514 
L 214.902857 -206.924187 
L 212.97039 -198.968867 
L 211.037922 -207.804983 
L 209.105455 -252.21778 
L 207.172987 -231.107566 
L 205.240519 -211.955755 
L 203.308052 -197.415978 
L 201.375584 -182.974874 
L 199.443117 -181.646577 
L 197.510649 -188.803414 
L 195.578182 -206.973652 
L 193.645714 -200.184938 
L 191.713247 -184.831001 
L 189.780779 -196.012042 
L 187.848312 -171.734641 
L 185.915844 -198.366132 
L 183.983377 -266.112079 
L 182.050909 -197.106558 
L 180.118442 -205.336432 
L 178.185974 -207.428193 
L 176.253506 -201.646419 
L 174.321039 -238.481287 
L 172.388571 -164.502035 
L 170.456104 -156.405738 
L 168.523636 -167.984583 
L 166.591169 -185.399776 
L 164.658701 -144.968493 
L 162.726234 -170.132036 
L 160.793766 -179.090881 
L 158.861299 -185.661099 
L 156.928831 -212.830126 
L 154.996364 -177.157438 
L 153.063896 -207.89327 
L 151.131429 -191.092148 
L 149.198961 -202.475845 
L 147.266494 -205.484974 
L 145.334026 -204.603833 
L 143.401558 -214.197485 
L 141.469091 -209.393906 
L 139.536623 -180.172684 
L 137.604156 -185.839158 
L 135.671688 -193.552721 
L 133.739221 -204.82626 
L 131.806753 -187.341007 
L 129.874286 -185.759321 
L 127.941818 -192.72037 
L 126.009351 -185.389399 
L 124.076883 -202.924788 
L 122.144416 -178.9751 
L 120.211948 -194.845571 
L 118.279481 -187.619084 
L 116.347013 -190.454721 
L 114.414545 -173.965376 
L 112.482078 -190.487406 
L 110.54961 -168.34282 
L 108.617143 -189.963039 
L 106.684675 -232.321699 
L 104.752208 -177.006755 
L 102.81974 -182.836981 
L 100.887273 -179.417368 
L 98.954805 -177.909416 
L 97.022338 -182.113309 
L 95.08987 -199.158801 
L 93.157403 -167.590635 
L 91.224935 -172.49292 
L 89.292468 -208.007892 
L 87.36 -172.228121 
L 85.427532 -158.163876 
L 83.495065 -203.197079 
L 81.562597 -256.129311 
L 79.63013 -166.142042 
L 77.697662 -177.637137 
L 75.765195 -181.288999 
L 73.832727 -202.641782 
z
" style="stroke: #ff7f0e; stroke-opacity: 0.2"/>
    </defs>
    <g clip-path="url(#p4420e0a30a)">
     <use xlink:href="#mee15091d26" x="0" y="345.6" style="fill: #ff7f0e; fill-opacity: 0.2; stroke: #ff7f0e; stroke-opacity: 0.2"/>
    </g>
   </g>
   <g id="FillBetweenPolyCollection_3">
    <defs>
     <path id="md981150630" d="M 73.832727 -58.838778 
L 73.832727 -51.175719 
L 75.765195 -51.322771 
L 77.697662 -51.127504 
L 79.63013 -50.969441 
L 81.562597 -52.516717 
L 83.495065 -51.017837 
L 85.427532 -51.368097 
L 87.36 -51.541665 
L 89.292468 -51.659213 
L 91.224935 -51.207109 
L 93.157403 -51.31251 
L 95.08987 -51.624559 
L 97.022338 -51.27349 
L 98.954805 -51.494437 
L 100.887273 -51.136641 
L 102.81974 -51.493178 
L 104.752208 -51.376071 
L 106.684675 -51.895067 
L 108.617143 -51.361348 
L 110.54961 -51.523303 
L 112.482078 -51.372272 
L 114.414545 -51.424051 
L 116.347013 -51.896153 
L 118.279481 -51.870039 
L 120.211948 -52.016021 
L 122.144416 -51.925897 
L 124.076883 -52.546401 
L 126.009351 -51.628659 
L 127.941818 -52.004879 
L 129.874286 -51.75919 
L 131.806753 -51.597106 
L 133.739221 -51.604889 
L 135.671688 -51.993985 
L 137.604156 -51.451563 
L 139.536623 -51.758767 
L 141.469091 -51.813196 
L 143.401558 -51.832077 
L 145.334026 -51.905124 
L 147.266494 -51.721171 
L 149.198961 -51.916164 
L 151.131429 -52.986146 
L 153.063896 -52.239465 
L 154.996364 -52.182131 
L 156.928831 -52.619882 
L 158.861299 -51.83932 
L 160.793766 -51.190905 
L 162.726234 -51.045386 
L 164.658701 -50.954371 
L 166.591169 -51.327823 
L 168.523636 -51.696217 
L 170.456104 -51.824817 
L 172.388571 -52.139938 
L 174.321039 -53.020288 
L 176.253506 -52.405736 
L 178.185974 -52.560391 
L 180.118442 -52.703681 
L 182.050909 -52.714567 
L 183.983377 -54.934165 
L 185.915844 -53.242627 
L 187.848312 -52.493655 
L 189.780779 -52.93352 
L 191.713247 -53.016734 
L 193.645714 -53.138153 
L 195.578182 -52.886606 
L 197.510649 -53.202045 
L 199.443117 -52.721771 
L 201.375584 -53.06061 
L 203.308052 -53.406555 
L 205.240519 -53.014419 
L 207.172987 -52.607285 
L 209.105455 -53.937813 
L 211.037922 -53.20593 
L 212.97039 -53.152051 
L 214.902857 -53.285801 
L 216.835325 -53.534836 
L 218.767792 -53.214634 
L 220.70026 -53.38577 
L 222.632727 -53.205721 
L 224.565195 -53.3079 
L 226.497662 -52.407997 
L 228.43013 -51.50699 
L 230.362597 -51.570075 
L 232.295065 -51.144573 
L 234.227532 -51.140446 
L 236.16 -51.015636 
L 238.092468 -50.829058 
L 240.024935 -50.661613 
L 241.957403 -50.672608 
L 243.88987 -50.507515 
L 245.822338 -50.497604 
L 247.754805 -50.533265 
L 249.687273 -50.555284 
L 251.61974 -50.634156 
L 253.552208 -50.429128 
L 255.484675 -50.535052 
L 257.417143 -50.583499 
L 259.34961 -50.638103 
L 261.282078 -50.568031 
L 263.214545 -50.348748 
L 265.147013 -50.127197 
L 267.079481 -50.280857 
L 269.011948 -50.293694 
L 270.944416 -50.428561 
L 272.876883 -50.688373 
L 274.809351 -50.649204 
L 276.741818 -50.641878 
L 278.674286 -50.757151 
L 280.606753 -51.662571 
L 282.539221 -51.398447 
L 284.471688 -53.123663 
L 286.404156 -51.26107 
L 288.336623 -51.106353 
L 290.269091 -51.313782 
L 292.201558 -51.285634 
L 294.134026 -50.950799 
L 296.066494 -50.846138 
L 297.998961 -50.721722 
L 299.931429 -50.589948 
L 301.863896 -50.72511 
L 303.796364 -50.840186 
L 305.728831 -50.664519 
L 307.661299 -50.765476 
L 309.593766 -50.949889 
L 311.526234 -50.732917 
L 313.458701 -50.735993 
L 315.391169 -50.80207 
L 317.323636 -50.815016 
L 319.256104 -50.786414 
L 321.188571 -50.957017 
L 323.121039 -50.700949 
L 325.053506 -51.199684 
L 326.985974 -51.051059 
L 328.918442 -50.902304 
L 330.850909 -50.629699 
L 332.783377 -50.633451 
L 334.715844 -50.67808 
L 336.648312 -50.741772 
L 338.580779 -50.517112 
L 340.513247 -50.411287 
L 342.445714 -50.438223 
L 344.378182 -50.33418 
L 346.310649 -50.192925 
L 348.243117 -50.185101 
L 350.175584 -50.112 
L 352.108052 -50.178478 
L 354.040519 -50.143306 
L 355.972987 -50.245089 
L 357.905455 -50.206897 
L 359.837922 -50.310711 
L 361.77039 -50.257627 
L 363.702857 -50.255757 
L 365.635325 -50.124316 
L 367.567792 -50.427495 
L 369.50026 -50.289392 
L 371.432727 -50.439241 
L 373.365195 -50.493286 
L 375.297662 -50.595193 
L 377.23013 -50.645968 
L 379.162597 -50.79737 
L 381.095065 -50.931027 
L 383.027532 -50.536463 
L 384.96 -51.145671 
L 386.892468 -50.769732 
L 388.824935 -50.496788 
L 390.757403 -50.684412 
L 392.68987 -50.667541 
L 394.622338 -50.649104 
L 396.554805 -50.732037 
L 398.487273 -50.77447 
L 398.487273 -57.68187 
L 398.487273 -57.68187 
L 396.554805 -56.817877 
L 394.622338 -57.203421 
L 392.68987 -55.960614 
L 390.757403 -57.777112 
L 388.824935 -55.55755 
L 386.892468 -57.300492 
L 384.96 -61.967007 
L 383.027532 -55.993217 
L 381.095065 -60.124335 
L 379.162597 -56.773592 
L 377.23013 -57.363951 
L 375.297662 -57.008382 
L 373.365195 -55.535577 
L 371.432727 -55.704466 
L 369.50026 -54.042691 
L 367.567792 -56.1589 
L 365.635325 -53.763958 
L 363.702857 -54.117357 
L 361.77039 -53.944902 
L 359.837922 -54.075312 
L 357.905455 -54.24745 
L 355.972987 -54.316385 
L 354.040519 -54.03817 
L 352.108052 -53.911139 
L 350.175584 -53.67548 
L 348.243117 -53.811935 
L 346.310649 -54.351237 
L 344.378182 -54.989262 
L 342.445714 -55.709174 
L 340.513247 -55.439628 
L 338.580779 -56.500957 
L 336.648312 -56.61139 
L 334.715844 -56.98146 
L 332.783377 -56.564541 
L 330.850909 -56.321312 
L 328.918442 -58.745229 
L 326.985974 -58.883624 
L 325.053506 -58.928006 
L 323.121039 -56.789368 
L 321.188571 -58.823345 
L 319.256104 -56.862426 
L 317.323636 -56.902981 
L 315.391169 -57.107367 
L 313.458701 -56.680672 
L 311.526234 -57.169952 
L 309.593766 -59.225567 
L 307.661299 -56.914932 
L 305.728831 -56.45047 
L 303.796364 -56.73884 
L 301.863896 -56.867193 
L 299.931429 -56.462718 
L 297.998961 -56.093897 
L 296.066494 -56.853403 
L 294.134026 -57.375301 
L 292.201558 -58.252312 
L 290.269091 -59.283226 
L 288.336623 -59.061719 
L 286.404156 -59.412839 
L 284.471688 -68.365479 
L 282.539221 -59.428908 
L 280.606753 -59.959088 
L 278.674286 -56.262755 
L 276.741818 -55.473171 
L 274.809351 -55.905141 
L 272.876883 -55.515674 
L 270.944416 -54.368371 
L 269.011948 -54.104349 
L 267.079481 -54.184622 
L 265.147013 -53.345512 
L 263.214545 -54.015173 
L 261.282078 -54.644894 
L 259.34961 -55.13096 
L 257.417143 -54.410652 
L 255.484675 -54.198776 
L 253.552208 -54.546713 
L 251.61974 -54.793973 
L 249.687273 -54.825564 
L 247.754805 -55.071815 
L 245.822338 -54.825647 
L 243.88987 -55.140247 
L 241.957403 -55.866541 
L 240.024935 -55.924224 
L 238.092468 -56.241723 
L 236.16 -57.689564 
L 234.227532 -58.218157 
L 232.295065 -58.086081 
L 230.362597 -60.243648 
L 228.43013 -60.345073 
L 226.497662 -63.373769 
L 224.565195 -68.327491 
L 222.632727 -68.139678 
L 220.70026 -67.77436 
L 218.767792 -67.101496 
L 216.835325 -69.017755 
L 214.902857 -66.536732 
L 212.97039 -67.627379 
L 211.037922 -68.461589 
L 209.105455 -71.653224 
L 207.172987 -64.692623 
L 205.240519 -66.809243 
L 203.308052 -69.900497 
L 201.375584 -67.56702 
L 199.443117 -69.127037 
L 197.510649 -69.754675 
L 195.578182 -68.671955 
L 193.645714 -69.822202 
L 191.713247 -68.334491 
L 189.780779 -66.37035 
L 187.848312 -64.70953 
L 185.915844 -68.410004 
L 183.983377 -77.161809 
L 182.050909 -68.180903 
L 180.118442 -65.33393 
L 178.185974 -66.008653 
L 176.253506 -63.496981 
L 174.321039 -66.906431 
L 172.388571 -62.898773 
L 170.456104 -63.120247 
L 168.523636 -61.30598 
L 166.591169 -59.91431 
L 164.658701 -57.272284 
L 162.726234 -57.997056 
L 160.793766 -58.862966 
L 158.861299 -61.933008 
L 156.928831 -65.323201 
L 154.996364 -62.671285 
L 153.063896 -63.69554 
L 151.131429 -67.593685 
L 149.198961 -63.197876 
L 147.266494 -60.966897 
L 145.334026 -61.822942 
L 143.401558 -62.08848 
L 141.469091 -62.376537 
L 139.536623 -61.789932 
L 137.604156 -59.865978 
L 135.671688 -62.948363 
L 133.739221 -61.210075 
L 131.806753 -60.437369 
L 129.874286 -60.93772 
L 127.941818 -62.564498 
L 126.009351 -60.800895 
L 124.076883 -64.770428 
L 122.144416 -61.089538 
L 120.211948 -63.739042 
L 118.279481 -61.473725 
L 116.347013 -61.725301 
L 114.414545 -59.382395 
L 112.482078 -59.704555 
L 110.54961 -60.458925 
L 108.617143 -59.231606 
L 106.684675 -62.229573 
L 104.752208 -58.991332 
L 102.81974 -60.727953 
L 100.887273 -58.396419 
L 98.954805 -58.872523 
L 97.022338 -58.122184 
L 95.08987 -60.956784 
L 93.157403 -59.030303 
L 91.224935 -58.457666 
L 89.292468 -61.377083 
L 87.36 -60.066423 
L 85.427532 -58.720277 
L 83.495065 -57.571421 
L 81.562597 -64.703445 
L 79.63013 -58.116901 
L 77.697662 -58.322271 
L 75.765195 -59.259148 
L 73.832727 -58.838778 
z
" style="stroke: #2ca02c; stroke-opacity: 0.2"/>
    </defs>
    <g clip-path="url(#p4420e0a30a)">
     <use xlink:href="#md981150630" x="0" y="345.6" style="fill: #2ca02c; fill-opacity: 0.2; stroke: #2ca02c; stroke-opacity: 0.2"/>
    </g>
   </g>
   <g id="matplotlib.axis_1">
    <g id="xtick_1">
     <g id="line2d_1">
      <defs>
       <path id="m827a0b691e" d="M 0 0 
L 0 3.5 
" style="stroke: #000000; stroke-width: 0.8"/>
      </defs>
      <g>
       <use xlink:href="#m827a0b691e" x="73.004527" y="307.584" style="stroke: #000000; stroke-width: 0.8"/>
      </g>
     </g>
     <g id="text_1">
      <!-- 2015-01 -->
      <g transform="translate(60.183245 349.501817) rotate(-45) scale(0.1 -0.1)">
       <defs>
        <path id="DejaVuSans-32" d="M 1228 531 
L 3431 531 
L 3431 0 
L 469 0 
L 469 531 
Q 828 903 1448 1529 
Q 2069 2156 2228 2338 
Q 2531 2678 2651 2914 
Q 2772 3150 2772 3378 
Q 2772 3750 2511 3984 
Q 2250 4219 1831 4219 
Q 1534 4219 1204 4116 
Q 875 4013 500 3803 
L 500 4441 
Q 881 4594 1212 4672 
Q 1544 4750 1819 4750 
Q 2544 4750 2975 4387 
Q 3406 4025 3406 3419 
Q 3406 3131 3298 2873 
Q 3191 2616 2906 2266 
Q 2828 2175 2409 1742 
Q 1991 1309 1228 531 
z
" transform="scale(0.015625)"/>
        <path id="DejaVuSans-30" d="M 2034 4250 
Q 1547 4250 1301 3770 
Q 1056 3291 1056 2328 
Q 1056 1369 1301 889 
Q 1547 409 2034 409 
Q 2525 409 2770 889 
Q 3016 1369 3016 2328 
Q 3016 3291 2770 3770 
Q 2525 4250 2034 4250 
z
M 2034 4750 
Q 2819 4750 3233 4129 
Q 3647 3509 3647 2328 
Q 3647 1150 3233 529 
Q 2819 -91 2034 -91 
Q 1250 -91 836 529 
Q 422 1150 422 2328 
Q 422 3509 836 4129 
Q 1250 4750 2034 4750 
z
" transform="scale(0.015625)"/>
        <path id="DejaVuSans-31" d="M 794 531 
L 1825 531 
L 1825 4091 
L 703 3866 
L 703 4441 
L 1819 4666 
L 2450 4666 
L 2450 531 
L 3481 531 
L 3481 0 
L 794 0 
L 794 531 
z
" transform="scale(0.015625)"/>
        <path id="DejaVuSans-35" d="M 691 4666 
L 3169 4666 
L 3169 4134 
L 1269 4134 
L 1269 2991 
Q 1406 3038 1543 3061 
Q 1681 3084 1819 3084 
Q 2600 3084 3056 2656 
Q 3513 2228 3513 1497 
Q 3513 744 3044 326 
Q 2575 -91 1722 -91 
Q 1428 -91 1123 -41 
Q 819 9 494 109 
L 494 744 
Q 775 591 1075 516 
Q 1375 441 1709 441 
Q 2250 441 2565 725 
Q 2881 1009 2881 1497 
Q 2881 1984 2565 2268 
Q 2250 2553 1709 2553 
Q 1456 2553 1204 2497 
Q 953 2441 691 2322 
L 691 4666 
z
" transform="scale(0.015625)"/>
        <path id="DejaVuSans-2d" d="M 313 2009 
L 1997 2009 
L 1997 1497 
L 313 1497 
L 313 2009 
z
" transform="scale(0.015625)"/>
       </defs>
       <use xlink:href="#DejaVuSans-32"/>
       <use xlink:href="#DejaVuSans-30" transform="translate(63.623047 0)"/>
       <use xlink:href="#DejaVuSans-31" transform="translate(127.246094 0)"/>
       <use xlink:href="#DejaVuSans-35" transform="translate(190.869141 0)"/>
       <use xlink:href="#DejaVuSans-2d" transform="translate(254.492188 0)"/>
       <use xlink:href="#DejaVuSans-30" transform="translate(290.576172 0)"/>
       <use xlink:href="#DejaVuSans-31" transform="translate(354.199219 0)"/>
      </g>
     </g>
    </g>
    <g id="xtick_2">
     <g id="line2d_2">
      <g>
       <use xlink:href="#m827a0b691e" x="106.132542" y="307.584" style="stroke: #000000; stroke-width: 0.8"/>
      </g>
     </g>
     <g id="text_2">
      <!-- 2015-05 -->
      <g transform="translate(93.311259 349.501817) rotate(-45) scale(0.1 -0.1)">
       <use xlink:href="#DejaVuSans-32"/>
       <use xlink:href="#DejaVuSans-30" transform="translate(63.623047 0)"/>
       <use xlink:href="#DejaVuSans-31" transform="translate(127.246094 0)"/>
       <use xlink:href="#DejaVuSans-35" transform="translate(190.869141 0)"/>
       <use xlink:href="#DejaVuSans-2d" transform="translate(254.492188 0)"/>
       <use xlink:href="#DejaVuSans-30" transform="translate(290.576172 0)"/>
       <use xlink:href="#DejaVuSans-35" transform="translate(354.199219 0)"/>
      </g>
     </g>
    </g>
    <g id="xtick_3">
     <g id="line2d_3">
      <g>
       <use xlink:href="#m827a0b691e" x="140.088757" y="307.584" style="stroke: #000000; stroke-width: 0.8"/>
      </g>
     </g>
     <g id="text_3">
      <!-- 2015-09 -->
      <g transform="translate(127.267475 349.501817) rotate(-45) scale(0.1 -0.1)">
       <defs>
        <path id="DejaVuSans-39" d="M 703 97 
L 703 672 
Q 941 559 1184 500 
Q 1428 441 1663 441 
Q 2288 441 2617 861 
Q 2947 1281 2994 2138 
Q 2813 1869 2534 1725 
Q 2256 1581 1919 1581 
Q 1219 1581 811 2004 
Q 403 2428 403 3163 
Q 403 3881 828 4315 
Q 1253 4750 1959 4750 
Q 2769 4750 3195 4129 
Q 3622 3509 3622 2328 
Q 3622 1225 3098 567 
Q 2575 -91 1691 -91 
Q 1453 -91 1209 -44 
Q 966 3 703 97 
z
M 1959 2075 
Q 2384 2075 2632 2365 
Q 2881 2656 2881 3163 
Q 2881 3666 2632 3958 
Q 2384 4250 1959 4250 
Q 1534 4250 1286 3958 
Q 1038 3666 1038 3163 
Q 1038 2656 1286 2365 
Q 1534 2075 1959 2075 
z
" transform="scale(0.015625)"/>
       </defs>
       <use xlink:href="#DejaVuSans-32"/>
       <use xlink:href="#DejaVuSans-30" transform="translate(63.623047 0)"/>
       <use xlink:href="#DejaVuSans-31" transform="translate(127.246094 0)"/>
       <use xlink:href="#DejaVuSans-35" transform="translate(190.869141 0)"/>
       <use xlink:href="#DejaVuSans-2d" transform="translate(254.492188 0)"/>
       <use xlink:href="#DejaVuSans-30" transform="translate(290.576172 0)"/>
       <use xlink:href="#DejaVuSans-39" transform="translate(354.199219 0)"/>
      </g>
     </g>
    </g>
    <g id="xtick_4">
     <g id="line2d_4">
      <g>
       <use xlink:href="#m827a0b691e" x="173.768905" y="307.584" style="stroke: #000000; stroke-width: 0.8"/>
      </g>
     </g>
     <g id="text_4">
      <!-- 2016-01 -->
      <g transform="translate(160.947623 349.501817) rotate(-45) scale(0.1 -0.1)">
       <defs>
        <path id="DejaVuSans-36" d="M 2113 2584 
Q 1688 2584 1439 2293 
Q 1191 2003 1191 1497 
Q 1191 994 1439 701 
Q 1688 409 2113 409 
Q 2538 409 2786 701 
Q 3034 994 3034 1497 
Q 3034 2003 2786 2293 
Q 2538 2584 2113 2584 
z
M 3366 4563 
L 3366 3988 
Q 3128 4100 2886 4159 
Q 2644 4219 2406 4219 
Q 1781 4219 1451 3797 
Q 1122 3375 1075 2522 
Q 1259 2794 1537 2939 
Q 1816 3084 2150 3084 
Q 2853 3084 3261 2657 
Q 3669 2231 3669 1497 
Q 3669 778 3244 343 
Q 2819 -91 2113 -91 
Q 1303 -91 875 529 
Q 447 1150 447 2328 
Q 447 3434 972 4092 
Q 1497 4750 2381 4750 
Q 2619 4750 2861 4703 
Q 3103 4656 3366 4563 
z
" transform="scale(0.015625)"/>
       </defs>
       <use xlink:href="#DejaVuSans-32"/>
       <use xlink:href="#DejaVuSans-30" transform="translate(63.623047 0)"/>
       <use xlink:href="#DejaVuSans-31" transform="translate(127.246094 0)"/>
       <use xlink:href="#DejaVuSans-36" transform="translate(190.869141 0)"/>
       <use xlink:href="#DejaVuSans-2d" transform="translate(254.492188 0)"/>
       <use xlink:href="#DejaVuSans-30" transform="translate(290.576172 0)"/>
       <use xlink:href="#DejaVuSans-31" transform="translate(354.199219 0)"/>
      </g>
     </g>
    </g>
    <g id="xtick_5">
     <g id="line2d_5">
      <g>
       <use xlink:href="#m827a0b691e" x="207.172987" y="307.584" style="stroke: #000000; stroke-width: 0.8"/>
      </g>
     </g>
     <g id="text_5">
      <!-- 2016-05 -->
      <g transform="translate(194.351705 349.501817) rotate(-45) scale(0.1 -0.1)">
       <use xlink:href="#DejaVuSans-32"/>
       <use xlink:href="#DejaVuSans-30" transform="translate(63.623047 0)"/>
       <use xlink:href="#DejaVuSans-31" transform="translate(127.246094 0)"/>
       <use xlink:href="#DejaVuSans-36" transform="translate(190.869141 0)"/>
       <use xlink:href="#DejaVuSans-2d" transform="translate(254.492188 0)"/>
       <use xlink:href="#DejaVuSans-30" transform="translate(290.576172 0)"/>
       <use xlink:href="#DejaVuSans-35" transform="translate(354.199219 0)"/>
      </g>
     </g>
    </g>
    <g id="xtick_6">
     <g id="line2d_6">
      <g>
       <use xlink:href="#m827a0b691e" x="241.129202" y="307.584" style="stroke: #000000; stroke-width: 0.8"/>
      </g>
     </g>
     <g id="text_6">
      <!-- 2016-09 -->
      <g transform="translate(228.30792 349.501817) rotate(-45) scale(0.1 -0.1)">
       <use xlink:href="#DejaVuSans-32"/>
       <use xlink:href="#DejaVuSans-30" transform="translate(63.623047 0)"/>
       <use xlink:href="#DejaVuSans-31" transform="translate(127.246094 0)"/>
       <use xlink:href="#DejaVuSans-36" transform="translate(190.869141 0)"/>
       <use xlink:href="#DejaVuSans-2d" transform="translate(254.492188 0)"/>
       <use xlink:href="#DejaVuSans-30" transform="translate(290.576172 0)"/>
       <use xlink:href="#DejaVuSans-39" transform="translate(354.199219 0)"/>
      </g>
     </g>
    </g>
    <g id="xtick_7">
     <g id="line2d_7">
      <g>
       <use xlink:href="#m827a0b691e" x="274.809351" y="307.584" style="stroke: #000000; stroke-width: 0.8"/>
      </g>
     </g>
     <g id="text_7">
      <!-- 2017-01 -->
      <g transform="translate(261.988068 349.501817) rotate(-45) scale(0.1 -0.1)">
       <defs>
        <path id="DejaVuSans-37" d="M 525 4666 
L 3525 4666 
L 3525 4397 
L 1831 0 
L 1172 0 
L 2766 4134 
L 525 4134 
L 525 4666 
z
" transform="scale(0.015625)"/>
       </defs>
       <use xlink:href="#DejaVuSans-32"/>
       <use xlink:href="#DejaVuSans-30" transform="translate(63.623047 0)"/>
       <use xlink:href="#DejaVuSans-31" transform="translate(127.246094 0)"/>
       <use xlink:href="#DejaVuSans-37" transform="translate(190.869141 0)"/>
       <use xlink:href="#DejaVuSans-2d" transform="translate(254.492188 0)"/>
       <use xlink:href="#DejaVuSans-30" transform="translate(290.576172 0)"/>
       <use xlink:href="#DejaVuSans-31" transform="translate(354.199219 0)"/>
      </g>
     </g>
    </g>
    <g id="xtick_8">
     <g id="line2d_8">
      <g>
       <use xlink:href="#m827a0b691e" x="307.937365" y="307.584" style="stroke: #000000; stroke-width: 0.8"/>
      </g>
     </g>
     <g id="text_8">
      <!-- 2017-05 -->
      <g transform="translate(295.116083 349.501817) rotate(-45) scale(0.1 -0.1)">
       <use xlink:href="#DejaVuSans-32"/>
       <use xlink:href="#DejaVuSans-30" transform="translate(63.623047 0)"/>
       <use xlink:href="#DejaVuSans-31" transform="translate(127.246094 0)"/>
       <use xlink:href="#DejaVuSans-37" transform="translate(190.869141 0)"/>
       <use xlink:href="#DejaVuSans-2d" transform="translate(254.492188 0)"/>
       <use xlink:href="#DejaVuSans-30" transform="translate(290.576172 0)"/>
       <use xlink:href="#DejaVuSans-35" transform="translate(354.199219 0)"/>
      </g>
     </g>
    </g>
    <g id="xtick_9">
     <g id="line2d_9">
      <g>
       <use xlink:href="#m827a0b691e" x="341.893581" y="307.584" style="stroke: #000000; stroke-width: 0.8"/>
      </g>
     </g>
     <g id="text_9">
      <!-- 2017-09 -->
      <g transform="translate(329.072298 349.501817) rotate(-45) scale(0.1 -0.1)">
       <use xlink:href="#DejaVuSans-32"/>
       <use xlink:href="#DejaVuSans-30" transform="translate(63.623047 0)"/>
       <use xlink:href="#DejaVuSans-31" transform="translate(127.246094 0)"/>
       <use xlink:href="#DejaVuSans-37" transform="translate(190.869141 0)"/>
       <use xlink:href="#DejaVuSans-2d" transform="translate(254.492188 0)"/>
       <use xlink:href="#DejaVuSans-30" transform="translate(290.576172 0)"/>
       <use xlink:href="#DejaVuSans-39" transform="translate(354.199219 0)"/>
      </g>
     </g>
    </g>
    <g id="xtick_10">
     <g id="line2d_10">
      <g>
       <use xlink:href="#m827a0b691e" x="375.573729" y="307.584" style="stroke: #000000; stroke-width: 0.8"/>
      </g>
     </g>
     <g id="text_10">
      <!-- 2018-01 -->
      <g transform="translate(362.752447 349.501817) rotate(-45) scale(0.1 -0.1)">
       <defs>
        <path id="DejaVuSans-38" d="M 2034 2216 
Q 1584 2216 1326 1975 
Q 1069 1734 1069 1313 
Q 1069 891 1326 650 
Q 1584 409 2034 409 
Q 2484 409 2743 651 
Q 3003 894 3003 1313 
Q 3003 1734 2745 1975 
Q 2488 2216 2034 2216 
z
M 1403 2484 
Q 997 2584 770 2862 
Q 544 3141 544 3541 
Q 544 4100 942 4425 
Q 1341 4750 2034 4750 
Q 2731 4750 3128 4425 
Q 3525 4100 3525 3541 
Q 3525 3141 3298 2862 
Q 3072 2584 2669 2484 
Q 3125 2378 3379 2068 
Q 3634 1759 3634 1313 
Q 3634 634 3220 271 
Q 2806 -91 2034 -91 
Q 1263 -91 848 271 
Q 434 634 434 1313 
Q 434 1759 690 2068 
Q 947 2378 1403 2484 
z
M 1172 3481 
Q 1172 3119 1398 2916 
Q 1625 2713 2034 2713 
Q 2441 2713 2670 2916 
Q 2900 3119 2900 3481 
Q 2900 3844 2670 4047 
Q 2441 4250 2034 4250 
Q 1625 4250 1398 4047 
Q 1172 3844 1172 3481 
z
" transform="scale(0.015625)"/>
       </defs>
       <use xlink:href="#DejaVuSans-32"/>
       <use xlink:href="#DejaVuSans-30" transform="translate(63.623047 0)"/>
       <use xlink:href="#DejaVuSans-31" transform="translate(127.246094 0)"/>
       <use xlink:href="#DejaVuSans-38" transform="translate(190.869141 0)"/>
       <use xlink:href="#DejaVuSans-2d" transform="translate(254.492188 0)"/>
       <use xlink:href="#DejaVuSans-30" transform="translate(290.576172 0)"/>
       <use xlink:href="#DejaVuSans-31" transform="translate(354.199219 0)"/>
      </g>
     </g>
    </g>
    <g id="xtick_11">
     <g id="line2d_11">
      <g>
       <use xlink:href="#m827a0b691e" x="408.701744" y="307.584" style="stroke: #000000; stroke-width: 0.8"/>
      </g>
     </g>
     <g id="text_11">
      <!-- 2018-05 -->
      <g transform="translate(395.880462 349.501817) rotate(-45) scale(0.1 -0.1)">
       <use xlink:href="#DejaVuSans-32"/>
       <use xlink:href="#DejaVuSans-30" transform="translate(63.623047 0)"/>
       <use xlink:href="#DejaVuSans-31" transform="translate(127.246094 0)"/>
       <use xlink:href="#DejaVuSans-38" transform="translate(190.869141 0)"/>
       <use xlink:href="#DejaVuSans-2d" transform="translate(254.492188 0)"/>
       <use xlink:href="#DejaVuSans-30" transform="translate(290.576172 0)"/>
       <use xlink:href="#DejaVuSans-35" transform="translate(354.199219 0)"/>
      </g>
     </g>
    </g>
    <g id="text_12">
     <!-- Date -->
     <g transform="translate(224.209219 362.570815) scale(0.1 -0.1)">
      <defs>
       <path id="DejaVuSans-44" d="M 1259 4147 
L 1259 519 
L 2022 519 
Q 2988 519 3436 956 
Q 3884 1394 3884 2338 
Q 3884 3275 3436 3711 
Q 2988 4147 2022 4147 
L 1259 4147 
z
M 628 4666 
L 1925 4666 
Q 3281 4666 3915 4102 
Q 4550 3538 4550 2338 
Q 4550 1131 3912 565 
Q 3275 0 1925 0 
L 628 0 
L 628 4666 
z
" transform="scale(0.015625)"/>
       <path id="DejaVuSans-61" d="M 2194 1759 
Q 1497 1759 1228 1600 
Q 959 1441 959 1056 
Q 959 750 1161 570 
Q 1363 391 1709 391 
Q 2188 391 2477 730 
Q 2766 1069 2766 1631 
L 2766 1759 
L 2194 1759 
z
M 3341 1997 
L 3341 0 
L 2766 0 
L 2766 531 
Q 2569 213 2275 61 
Q 1981 -91 1556 -91 
Q 1019 -91 701 211 
Q 384 513 384 1019 
Q 384 1609 779 1909 
Q 1175 2209 1959 2209 
L 2766 2209 
L 2766 2266 
Q 2766 2663 2505 2880 
Q 2244 3097 1772 3097 
Q 1472 3097 1187 3025 
Q 903 2953 641 2809 
L 641 3341 
Q 956 3463 1253 3523 
Q 1550 3584 1831 3584 
Q 2591 3584 2966 3190 
Q 3341 2797 3341 1997 
z
" transform="scale(0.015625)"/>
       <path id="DejaVuSans-74" d="M 1172 4494 
L 1172 3500 
L 2356 3500 
L 2356 3053 
L 1172 3053 
L 1172 1153 
Q 1172 725 1289 603 
Q 1406 481 1766 481 
L 2356 481 
L 2356 0 
L 1766 0 
Q 1100 0 847 248 
Q 594 497 594 1153 
L 594 3053 
L 172 3053 
L 172 3500 
L 594 3500 
L 594 4494 
L 1172 4494 
z
" transform="scale(0.015625)"/>
       <path id="DejaVuSans-65" d="M 3597 1894 
L 3597 1613 
L 953 1613 
Q 991 1019 1311 708 
Q 1631 397 2203 397 
Q 2534 397 2845 478 
Q 3156 559 3463 722 
L 3463 178 
Q 3153 47 2828 -22 
Q 2503 -91 2169 -91 
Q 1331 -91 842 396 
Q 353 884 353 1716 
Q 353 2575 817 3079 
Q 1281 3584 2069 3584 
Q 2775 3584 3186 3129 
Q 3597 2675 3597 1894 
z
M 3022 2063 
Q 3016 2534 2758 2815 
Q 2500 3097 2075 3097 
Q 1594 3097 1305 2825 
Q 1016 2553 972 2059 
L 3022 2063 
z
" transform="scale(0.015625)"/>
      </defs>
      <use xlink:href="#DejaVuSans-44"/>
      <use xlink:href="#DejaVuSans-61" transform="translate(77.001953 0)"/>
      <use xlink:href="#DejaVuSans-74" transform="translate(138.28125 0)"/>
      <use xlink:href="#DejaVuSans-65" transform="translate(177.490234 0)"/>
     </g>
    </g>
   </g>
   <g id="matplotlib.axis_2">
    <g id="ytick_1">
     <g id="line2d_12">
      <defs>
       <path id="m9a8ce0b09b" d="M 0 0 
L -3.5 0 
" style="stroke: #000000; stroke-width: 0.8"/>
      </defs>
      <g>
       <use xlink:href="#m9a8ce0b09b" x="57.6" y="296.228822" style="stroke: #000000; stroke-width: 0.8"/>
      </g>
     </g>
     <g id="text_13">
      <!-- 0.0 -->
      <g transform="translate(34.696875 300.02804) scale(0.1 -0.1)">
       <defs>
        <path id="DejaVuSans-2e" d="M 684 794 
L 1344 794 
L 1344 0 
L 684 0 
L 684 794 
z
" transform="scale(0.015625)"/>
       </defs>
       <use xlink:href="#DejaVuSans-30"/>
       <use xlink:href="#DejaVuSans-2e" transform="translate(63.623047 0)"/>
       <use xlink:href="#DejaVuSans-30" transform="translate(95.410156 0)"/>
      </g>
     </g>
    </g>
    <g id="ytick_2">
     <g id="line2d_13">
      <g>
       <use xlink:href="#m9a8ce0b09b" x="57.6" y="249.202245" style="stroke: #000000; stroke-width: 0.8"/>
      </g>
     </g>
     <g id="text_14">
      <!-- 0.2 -->
      <g transform="translate(34.696875 253.001464) scale(0.1 -0.1)">
       <use xlink:href="#DejaVuSans-30"/>
       <use xlink:href="#DejaVuSans-2e" transform="translate(63.623047 0)"/>
       <use xlink:href="#DejaVuSans-32" transform="translate(95.410156 0)"/>
      </g>
     </g>
    </g>
    <g id="ytick_3">
     <g id="line2d_14">
      <g>
       <use xlink:href="#m9a8ce0b09b" x="57.6" y="202.175669" style="stroke: #000000; stroke-width: 0.8"/>
      </g>
     </g>
     <g id="text_15">
      <!-- 0.4 -->
      <g transform="translate(34.696875 205.974888) scale(0.1 -0.1)">
       <defs>
        <path id="DejaVuSans-34" d="M 2419 4116 
L 825 1625 
L 2419 1625 
L 2419 4116 
z
M 2253 4666 
L 3047 4666 
L 3047 1625 
L 3713 1625 
L 3713 1100 
L 3047 1100 
L 3047 0 
L 2419 0 
L 2419 1100 
L 313 1100 
L 313 1709 
L 2253 4666 
z
" transform="scale(0.015625)"/>
       </defs>
       <use xlink:href="#DejaVuSans-30"/>
       <use xlink:href="#DejaVuSans-2e" transform="translate(63.623047 0)"/>
       <use xlink:href="#DejaVuSans-34" transform="translate(95.410156 0)"/>
      </g>
     </g>
    </g>
    <g id="ytick_4">
     <g id="line2d_15">
      <g>
       <use xlink:href="#m9a8ce0b09b" x="57.6" y="155.149093" style="stroke: #000000; stroke-width: 0.8"/>
      </g>
     </g>
     <g id="text_16">
      <!-- 0.6 -->
      <g transform="translate(34.696875 158.948311) scale(0.1 -0.1)">
       <use xlink:href="#DejaVuSans-30"/>
       <use xlink:href="#DejaVuSans-2e" transform="translate(63.623047 0)"/>
       <use xlink:href="#DejaVuSans-36" transform="translate(95.410156 0)"/>
      </g>
     </g>
    </g>
    <g id="ytick_5">
     <g id="line2d_16">
      <g>
       <use xlink:href="#m9a8ce0b09b" x="57.6" y="108.122516" style="stroke: #000000; stroke-width: 0.8"/>
      </g>
     </g>
     <g id="text_17">
      <!-- 0.8 -->
      <g transform="translate(34.696875 111.921735) scale(0.1 -0.1)">
       <use xlink:href="#DejaVuSans-30"/>
       <use xlink:href="#DejaVuSans-2e" transform="translate(63.623047 0)"/>
       <use xlink:href="#DejaVuSans-38" transform="translate(95.410156 0)"/>
      </g>
     </g>
    </g>
    <g id="ytick_6">
     <g id="line2d_17">
      <g>
       <use xlink:href="#m9a8ce0b09b" x="57.6" y="61.09594" style="stroke: #000000; stroke-width: 0.8"/>
      </g>
     </g>
     <g id="text_18">
      <!-- 1.0 -->
      <g transform="translate(34.696875 64.895159) scale(0.1 -0.1)">
       <use xlink:href="#DejaVuSans-31"/>
       <use xlink:href="#DejaVuSans-2e" transform="translate(63.623047 0)"/>
       <use xlink:href="#DejaVuSans-30" transform="translate(95.410156 0)"/>
      </g>
     </g>
    </g>
    <g id="text_19">
     <!-- Avocado Sales -->
     <g transform="translate(28.617187 210.617844) rotate(-90) scale(0.1 -0.1)">
      <defs>
       <path id="DejaVuSans-41" d="M 2188 4044 
L 1331 1722 
L 3047 1722 
L 2188 4044 
z
M 1831 4666 
L 2547 4666 
L 4325 0 
L 3669 0 
L 3244 1197 
L 1141 1197 
L 716 0 
L 50 0 
L 1831 4666 
z
" transform="scale(0.015625)"/>
       <path id="DejaVuSans-76" d="M 191 3500 
L 800 3500 
L 1894 563 
L 2988 3500 
L 3597 3500 
L 2284 0 
L 1503 0 
L 191 3500 
z
" transform="scale(0.015625)"/>
       <path id="DejaVuSans-6f" d="M 1959 3097 
Q 1497 3097 1228 2736 
Q 959 2375 959 1747 
Q 959 1119 1226 758 
Q 1494 397 1959 397 
Q 2419 397 2687 759 
Q 2956 1122 2956 1747 
Q 2956 2369 2687 2733 
Q 2419 3097 1959 3097 
z
M 1959 3584 
Q 2709 3584 3137 3096 
Q 3566 2609 3566 1747 
Q 3566 888 3137 398 
Q 2709 -91 1959 -91 
Q 1206 -91 779 398 
Q 353 888 353 1747 
Q 353 2609 779 3096 
Q 1206 3584 1959 3584 
z
" transform="scale(0.015625)"/>
       <path id="DejaVuSans-63" d="M 3122 3366 
L 3122 2828 
Q 2878 2963 2633 3030 
Q 2388 3097 2138 3097 
Q 1578 3097 1268 2742 
Q 959 2388 959 1747 
Q 959 1106 1268 751 
Q 1578 397 2138 397 
Q 2388 397 2633 464 
Q 2878 531 3122 666 
L 3122 134 
Q 2881 22 2623 -34 
Q 2366 -91 2075 -91 
Q 1284 -91 818 406 
Q 353 903 353 1747 
Q 353 2603 823 3093 
Q 1294 3584 2113 3584 
Q 2378 3584 2631 3529 
Q 2884 3475 3122 3366 
z
" transform="scale(0.015625)"/>
       <path id="DejaVuSans-64" d="M 2906 2969 
L 2906 4863 
L 3481 4863 
L 3481 0 
L 2906 0 
L 2906 525 
Q 2725 213 2448 61 
Q 2172 -91 1784 -91 
Q 1150 -91 751 415 
Q 353 922 353 1747 
Q 353 2572 751 3078 
Q 1150 3584 1784 3584 
Q 2172 3584 2448 3432 
Q 2725 3281 2906 2969 
z
M 947 1747 
Q 947 1113 1208 752 
Q 1469 391 1925 391 
Q 2381 391 2643 752 
Q 2906 1113 2906 1747 
Q 2906 2381 2643 2742 
Q 2381 3103 1925 3103 
Q 1469 3103 1208 2742 
Q 947 2381 947 1747 
z
" transform="scale(0.015625)"/>
       <path id="DejaVuSans-20" transform="scale(0.015625)"/>
       <path id="DejaVuSans-53" d="M 3425 4513 
L 3425 3897 
Q 3066 4069 2747 4153 
Q 2428 4238 2131 4238 
Q 1616 4238 1336 4038 
Q 1056 3838 1056 3469 
Q 1056 3159 1242 3001 
Q 1428 2844 1947 2747 
L 2328 2669 
Q 3034 2534 3370 2195 
Q 3706 1856 3706 1288 
Q 3706 609 3251 259 
Q 2797 -91 1919 -91 
Q 1588 -91 1214 -16 
Q 841 59 441 206 
L 441 856 
Q 825 641 1194 531 
Q 1563 422 1919 422 
Q 2459 422 2753 634 
Q 3047 847 3047 1241 
Q 3047 1584 2836 1778 
Q 2625 1972 2144 2069 
L 1759 2144 
Q 1053 2284 737 2584 
Q 422 2884 422 3419 
Q 422 4038 858 4394 
Q 1294 4750 2059 4750 
Q 2388 4750 2728 4690 
Q 3069 4631 3425 4513 
z
" transform="scale(0.015625)"/>
       <path id="DejaVuSans-6c" d="M 603 4863 
L 1178 4863 
L 1178 0 
L 603 0 
L 603 4863 
z
" transform="scale(0.015625)"/>
       <path id="DejaVuSans-73" d="M 2834 3397 
L 2834 2853 
Q 2591 2978 2328 3040 
Q 2066 3103 1784 3103 
Q 1356 3103 1142 2972 
Q 928 2841 928 2578 
Q 928 2378 1081 2264 
Q 1234 2150 1697 2047 
L 1894 2003 
Q 2506 1872 2764 1633 
Q 3022 1394 3022 966 
Q 3022 478 2636 193 
Q 2250 -91 1575 -91 
Q 1294 -91 989 -36 
Q 684 19 347 128 
L 347 722 
Q 666 556 975 473 
Q 1284 391 1588 391 
Q 1994 391 2212 530 
Q 2431 669 2431 922 
Q 2431 1156 2273 1281 
Q 2116 1406 1581 1522 
L 1381 1569 
Q 847 1681 609 1914 
Q 372 2147 372 2553 
Q 372 3047 722 3315 
Q 1072 3584 1716 3584 
Q 2034 3584 2315 3537 
Q 2597 3491 2834 3397 
z
" transform="scale(0.015625)"/>
      </defs>
      <use xlink:href="#DejaVuSans-41"/>
      <use xlink:href="#DejaVuSans-76" transform="translate(62.533203 0)"/>
      <use xlink:href="#DejaVuSans-6f" transform="translate(121.712891 0)"/>
      <use xlink:href="#DejaVuSans-63" transform="translate(182.894531 0)"/>
      <use xlink:href="#DejaVuSans-61" transform="translate(237.875 0)"/>
      <use xlink:href="#DejaVuSans-64" transform="translate(299.154297 0)"/>
      <use xlink:href="#DejaVuSans-6f" transform="translate(362.630859 0)"/>
      <use xlink:href="#DejaVuSans-20" transform="translate(423.8125 0)"/>
      <use xlink:href="#DejaVuSans-53" transform="translate(455.599609 0)"/>
      <use xlink:href="#DejaVuSans-61" transform="translate(519.076172 0)"/>
      <use xlink:href="#DejaVuSans-6c" transform="translate(580.355469 0)"/>
      <use xlink:href="#DejaVuSans-65" transform="translate(608.138672 0)"/>
      <use xlink:href="#DejaVuSans-73" transform="translate(669.662109 0)"/>
     </g>
    </g>
    <g id="text_20">
     <!-- 1e6 -->
     <g transform="translate(57.6 38.472) scale(0.1 -0.1)">
      <use xlink:href="#DejaVuSans-31"/>
      <use xlink:href="#DejaVuSans-65" transform="translate(63.623047 0)"/>
      <use xlink:href="#DejaVuSans-36" transform="translate(125.146484 0)"/>
     </g>
    </g>
   </g>
   <g id="line2d_18">
    <path d="M 73.832727 224.168739 
L 75.765195 228.684365 
L 77.697662 226.989358 
L 79.63013 225.895498 
L 81.562597 186.733123 
L 83.495065 219.765024 
L 85.427532 222.609724 
L 87.36 222.340006 
L 89.292468 218.039612 
L 91.224935 220.608135 
L 93.157403 219.801499 
L 95.08987 217.304174 
L 97.022338 223.734153 
L 98.954805 215.718031 
L 100.887273 211.420655 
L 102.81974 213.981698 
L 104.752208 215.955963 
L 106.684675 192.289132 
L 110.54961 212.156565 
L 112.482078 203.799169 
L 114.414545 206.320664 
L 116.347013 200.783793 
L 118.279481 201.485568 
L 120.211948 210.926598 
L 122.144416 219.287882 
L 124.076883 205.382788 
L 126.009351 224.759546 
L 127.941818 222.233778 
L 129.874286 225.496474 
L 131.806753 225.874965 
L 133.739221 220.294617 
L 135.671688 222.676808 
L 137.604156 230.896069 
L 139.536623 228.336885 
L 141.469091 223.427523 
L 143.401558 239.391375 
L 145.334026 241.673472 
L 147.266494 247.376837 
L 149.198961 248.102783 
L 153.063896 242.936333 
L 154.996364 246.248001 
L 156.928831 237.248344 
L 158.861299 237.865696 
L 160.793766 238.655382 
L 162.726234 246.7854 
L 164.658701 249.51335 
L 166.591169 241.383345 
L 168.523636 239.643954 
L 170.456104 246.122187 
L 172.388571 240.762106 
L 174.321039 229.846592 
L 176.253506 230.758895 
L 178.185974 239.099924 
L 180.118442 255.480605 
L 182.050909 233.397577 
L 183.983377 202.431321 
L 185.915844 228.832167 
L 187.848312 239.385481 
L 189.780779 228.612766 
L 191.713247 229.227053 
L 193.645714 230.401307 
L 195.578182 233.04505 
L 197.510649 232.183246 
L 199.443117 231.923635 
L 201.375584 222.891144 
L 203.308052 228.366397 
L 205.240519 222.490795 
L 207.172987 217.191852 
L 209.105455 215.59649 
L 211.037922 225.342369 
L 212.97039 230.023956 
L 214.902857 218.737849 
L 216.835325 217.586006 
L 218.767792 225.914057 
L 220.70026 219.003319 
L 222.632727 226.478562 
L 224.565195 224.154977 
L 228.43013 236.987604 
L 230.362597 236.818699 
L 232.295065 237.919596 
L 234.227532 226.289474 
L 236.16 225.549806 
L 238.092468 223.193394 
L 240.024935 224.354893 
L 241.957403 212.479715 
L 243.88987 221.677362 
L 245.822338 231.861023 
L 247.754805 235.701196 
L 249.687273 241.436508 
L 251.61974 241.808987 
L 253.552208 245.813512 
L 255.484675 252.820207 
L 257.417143 256.094671 
L 259.34961 252.035067 
L 261.282078 249.057478 
L 263.214545 247.033753 
L 265.147013 250.783603 
L 267.079481 233.553522 
L 269.011948 245.218226 
L 270.944416 242.73608 
L 272.876883 243.34848 
L 274.809351 225.072907 
L 276.741818 229.495453 
L 278.674286 222.846718 
L 280.606753 214.62958 
L 282.539221 216.340662 
L 284.471688 167.843542 
L 286.404156 210.274906 
L 288.336623 231.168506 
L 290.269091 221.615363 
L 292.201558 231.673392 
L 294.134026 232.498857 
L 296.066494 233.481267 
L 297.998961 229.220663 
L 299.931429 226.411295 
L 301.863896 227.592679 
L 303.796364 225.789514 
L 305.728831 226.715051 
L 307.661299 219.770298 
L 309.593766 199.111218 
L 311.526234 222.868456 
L 313.458701 226.790273 
L 315.391169 222.671264 
L 317.323636 220.403371 
L 319.256104 219.21943 
L 321.188571 221.129346 
L 323.121039 221.711723 
L 325.053506 223.913746 
L 326.985974 221.96658 
L 328.918442 232.122665 
L 330.850909 230.57603 
L 332.783377 232.347122 
L 334.715844 231.276326 
L 336.648312 233.165573 
L 338.580779 235.697974 
L 340.513247 235.037169 
L 342.445714 240.019483 
L 344.378182 241.572151 
L 346.310649 243.609704 
L 348.243117 246.399346 
L 350.175584 248.339342 
L 352.108052 245.093715 
L 354.040519 245.898902 
L 355.972987 241.117353 
L 357.905455 235.365781 
L 361.77039 230.292969 
L 363.702857 232.3729 
L 365.635325 243.537621 
L 367.567792 228.973454 
L 369.50026 228.135 
L 371.432727 235.211706 
L 373.365195 238.870403 
L 375.297662 221.830537 
L 377.23013 218.161178 
L 379.162597 224.534369 
L 381.095065 215.351819 
L 383.027532 213.957104 
L 384.96 173.10441 
L 386.892468 205.784578 
L 388.824935 219.681397 
L 390.757403 217.630323 
L 392.68987 214.192286 
L 394.622338 215.642266 
L 396.554805 217.984449 
L 398.487273 216.141778 
L 398.487273 216.141778 
" clip-path="url(#p4420e0a30a)" style="fill: none; stroke: #1f77b4; stroke-width: 1.5; stroke-linecap: square"/>
   </g>
   <g id="line2d_19">
    <path d="M 73.832727 215.998351 
L 75.765195 224.799741 
L 77.697662 227.295607 
L 79.63013 233.2456 
L 81.562597 185.855203 
L 83.495065 216.927676 
L 85.427532 238.499416 
L 87.36 229.391566 
L 89.292468 215.196687 
L 91.224935 231.296163 
L 93.157403 233.43697 
L 95.08987 221.113736 
L 97.022338 227.598743 
L 98.954805 228.034017 
L 100.887273 228.898622 
L 102.81974 223.274203 
L 104.752208 230.872557 
L 106.684675 198.114961 
L 108.617143 215.165208 
L 110.54961 230.633502 
L 112.482078 221.802928 
L 114.414545 226.679165 
L 116.347013 221.360331 
L 118.279481 220.050204 
L 120.211948 217.520177 
L 122.144416 227.746125 
L 124.076883 212.396159 
L 126.009351 223.099484 
L 127.941818 221.709496 
L 129.874286 225.74219 
L 131.806753 223.822796 
L 133.739221 213.676639 
L 135.671688 219.18437 
L 137.604156 221.725946 
L 139.536623 224.951757 
L 141.469091 212.426949 
L 143.401558 208.058202 
L 145.334026 214.585355 
L 147.266494 214.547761 
L 149.198961 214.666257 
L 151.131429 217.521789 
L 153.063896 212.105307 
L 154.996364 228.605699 
L 156.928831 211.056709 
L 158.861299 223.504739 
L 160.793766 226.406435 
L 162.726234 234.063934 
L 164.658701 242.408848 
L 166.591169 223.564185 
L 170.456104 240.579002 
L 172.388571 235.880104 
L 174.321039 201.94076 
L 176.253506 217.834732 
L 178.185974 213.964255 
L 180.118442 212.97028 
L 182.050909 217.253925 
L 183.983377 175.76376 
L 185.915844 217.233042 
L 187.848312 224.641026 
L 189.780779 216.834689 
L 191.713247 223.039814 
L 193.645714 217.484149 
L 195.578182 214.058295 
L 197.510649 219.898568 
L 199.443117 226.722567 
L 201.375584 226.591265 
L 203.308052 219.670719 
L 205.240519 209.128046 
L 207.172987 200.529975 
L 209.105455 188.38184 
L 211.037922 209.383445 
L 212.97039 218.035815 
L 214.902857 212.660104 
L 216.835325 216.104949 
L 218.767792 227.00653 
L 220.70026 219.669065 
L 222.632727 223.82062 
L 224.565195 217.463603 
L 226.497662 227.007966 
L 228.43013 232.926981 
L 230.362597 232.054401 
L 232.295065 234.299209 
L 234.227532 232.315272 
L 236.16 230.95422 
L 238.092468 236.798487 
L 240.024935 233.646689 
L 241.957403 229.828414 
L 243.88987 233.580846 
L 245.822338 239.776403 
L 247.754805 240.898119 
L 249.687273 241.438019 
L 251.61974 238.617801 
L 255.484675 247.8021 
L 257.417143 254.345914 
L 259.34961 253.235571 
L 261.282078 249.495478 
L 263.214545 247.60811 
L 265.147013 251.873933 
L 267.079481 236.930363 
L 269.011948 236.223937 
L 270.944416 234.082133 
L 272.876883 235.205947 
L 274.809351 212.453497 
L 276.741818 213.465008 
L 278.674286 221.289421 
L 280.606753 211.647907 
L 282.539221 226.486928 
L 284.471688 175.452767 
L 286.404156 223.258066 
L 288.336623 232.360862 
L 290.269091 227.712956 
L 292.201558 230.634062 
L 294.134026 238.436837 
L 296.066494 237.845848 
L 297.998961 237.994631 
L 299.931429 237.10131 
L 301.863896 231.282877 
L 303.796364 235.128956 
L 305.728831 234.582032 
L 307.661299 228.003987 
L 309.593766 214.864721 
L 311.526234 237.499423 
L 313.458701 234.571675 
L 315.391169 230.579872 
L 317.323636 234.806664 
L 319.256104 235.456778 
L 321.188571 227.974756 
L 323.121039 230.698368 
L 325.053506 230.815339 
L 328.918442 229.761109 
L 330.850909 228.838836 
L 332.783377 230.672993 
L 334.715844 231.505858 
L 336.648312 230.64041 
L 338.580779 243.689723 
L 340.513247 244.958425 
L 342.445714 244.823637 
L 344.378182 245.997812 
L 348.243117 246.165344 
L 350.175584 245.890394 
L 352.108052 250.125145 
L 354.040519 244.79306 
L 355.972987 243.52504 
L 357.905455 237.270107 
L 359.837922 237.672332 
L 361.77039 236.452534 
L 363.702857 249.096888 
L 365.635325 252.135354 
L 367.567792 230.956368 
L 369.50026 225.492968 
L 371.432727 236.222857 
L 373.365195 242.541129 
L 375.297662 217.760862 
L 377.23013 231.511342 
L 379.162597 225.464454 
L 381.095065 212.351324 
L 383.027532 222.610614 
L 384.96 173.820815 
L 386.892468 226.469808 
L 388.824935 230.705042 
L 390.757403 233.413889 
L 392.68987 227.342528 
L 394.622338 230.63688 
L 396.554805 229.023412 
L 398.487273 223.641379 
L 398.487273 223.641379 
" clip-path="url(#p4420e0a30a)" style="fill: none; stroke: #ff7f0e; stroke-width: 1.5; stroke-linecap: square"/>
   </g>
   <g id="line2d_20">
    <path d="M 73.832727 291.267477 
L 75.765195 291.114317 
L 79.63013 291.703866 
L 81.562597 288.200581 
L 83.495065 291.878011 
L 87.36 290.73999 
L 89.292468 289.987374 
L 91.224935 291.349734 
L 93.157403 291.159453 
L 95.08987 290.039893 
L 97.022338 291.486339 
L 98.954805 291.180178 
L 100.887273 291.561282 
L 102.81974 290.388997 
L 104.752208 291.040352 
L 106.684675 289.619258 
L 108.617143 291.16348 
L 110.54961 290.463514 
L 112.482078 290.91631 
L 114.414545 290.855625 
L 116.347013 289.610757 
L 118.279481 289.937952 
L 120.211948 288.609461 
L 122.144416 290.194881 
L 124.076883 288.482243 
L 126.009351 290.484255 
L 127.941818 289.53186 
L 129.874286 290.351193 
L 131.806753 290.535448 
L 133.739221 290.316724 
L 135.671688 289.544126 
L 137.604156 290.857593 
L 139.536623 290.028973 
L 141.469091 289.547558 
L 145.334026 289.662123 
L 147.266494 289.980744 
L 149.198961 289.182344 
L 151.131429 286.901017 
L 153.063896 289.13181 
L 154.996364 289.263915 
L 156.928831 287.995673 
L 158.861299 289.573282 
L 160.793766 291.450889 
L 162.726234 291.540255 
L 164.658701 291.96936 
L 166.591169 290.74809 
L 168.523636 290.3347 
L 170.456104 289.337332 
L 172.388571 289.433417 
L 174.321039 287.111697 
L 176.253506 288.789842 
L 178.185974 287.981444 
L 180.118442 287.841357 
L 182.050909 286.841523 
L 183.983377 281.845969 
L 185.915844 285.889473 
L 187.848312 288.38099 
L 189.780779 287.256046 
L 193.645714 286.073679 
L 195.578182 286.193082 
L 197.510649 285.583658 
L 199.443117 286.410901 
L 201.375584 286.685548 
L 203.308052 285.438551 
L 205.240519 287.027727 
L 207.172987 288.028622 
L 209.105455 284.704879 
L 211.037922 286.25524 
L 212.97039 286.6462 
L 214.902857 286.900536 
L 216.835325 285.862467 
L 218.767792 286.840858 
L 220.70026 286.702985 
L 222.632727 286.818491 
L 224.565195 286.096758 
L 226.497662 288.876274 
L 228.43013 290.633617 
L 230.362597 290.67088 
L 232.295065 291.600578 
L 236.16 291.816265 
L 238.092468 292.647857 
L 243.88987 293.174838 
L 245.822338 293.317556 
L 249.687273 293.267546 
L 251.61974 293.278267 
L 253.552208 293.540333 
L 257.417143 293.476992 
L 259.34961 293.160703 
L 261.282078 293.335439 
L 265.147013 294.14048 
L 267.079481 293.646996 
L 269.011948 293.757364 
L 270.944416 293.611321 
L 272.876883 292.886245 
L 276.741818 292.936153 
L 278.674286 292.660014 
L 280.606753 290.625535 
L 282.539221 291.328551 
L 284.471688 286.292891 
L 286.404156 291.159461 
L 288.336623 291.399629 
L 290.269091 291.035786 
L 292.201558 291.549715 
L 296.066494 292.434328 
L 297.998961 292.594165 
L 303.796364 292.351022 
L 305.728831 292.575737 
L 307.661299 292.241743 
L 309.593766 291.132708 
L 311.526234 292.328838 
L 313.458701 292.52388 
L 315.391169 292.248229 
L 319.256104 292.40877 
L 321.188571 291.502281 
L 323.121039 292.329605 
L 325.053506 291.237258 
L 328.918442 291.785721 
L 330.850909 292.580784 
L 332.783377 292.676484 
L 334.715844 292.292423 
L 338.580779 292.757783 
L 340.513247 293.125673 
L 342.445714 292.991925 
L 344.378182 293.307527 
L 346.310649 293.735871 
L 348.243117 293.972647 
L 355.972987 293.763111 
L 357.905455 293.671917 
L 359.837922 293.835653 
L 361.77039 293.722552 
L 363.702857 293.737957 
L 365.635325 293.941737 
L 367.567792 292.830127 
L 369.50026 293.842967 
L 371.432727 292.869638 
L 373.365195 292.990193 
L 375.297662 292.459299 
L 377.23013 292.22526 
L 379.162597 292.350273 
L 381.095065 290.863784 
L 383.027532 292.810395 
L 384.96 290.129467 
L 386.892468 292.364088 
L 388.824935 292.936225 
L 390.757403 292.011036 
L 392.68987 292.862813 
L 394.622338 292.077668 
L 396.554805 292.410006 
L 398.487273 291.777002 
L 398.487273 291.777002 
" clip-path="url(#p4420e0a30a)" style="fill: none; stroke: #2ca02c; stroke-width: 1.5; stroke-linecap: square"/>
   </g>
   <g id="patch_3">
    <path d="M 57.6 307.584 
L 57.6 41.472 
" style="fill: none; stroke: #000000; stroke-width: 0.8; stroke-linejoin: miter; stroke-linecap: square"/>
   </g>
   <g id="patch_4">
    <path d="M 414.72 307.584 
L 414.72 41.472 
" style="fill: none; stroke: #000000; stroke-width: 0.8; stroke-linejoin: miter; stroke-linecap: square"/>
   </g>
   <g id="patch_5">
    <path d="M 57.6 307.584 
L 414.72 307.584 
" style="fill: none; stroke: #000000; stroke-width: 0.8; stroke-linejoin: miter; stroke-linecap: square"/>
   </g>
   <g id="patch_6">
    <path d="M 57.6 41.472 
L 414.72 41.472 
" style="fill: none; stroke: #000000; stroke-width: 0.8; stroke-linejoin: miter; stroke-linecap: square"/>
   </g>
   <g id="legend_1">
    <g id="patch_7">
     <path d="M 207.435 93.506375 
L 264.885 93.506375 
Q 266.885 93.506375 266.885 91.506375 
L 266.885 48.472 
Q 266.885 46.472 264.885 46.472 
L 207.435 46.472 
Q 205.435 46.472 205.435 48.472 
L 205.435 91.506375 
Q 205.435 93.506375 207.435 93.506375 
z
" style="fill: #ffffff; opacity: 0.8; stroke: #cccccc; stroke-linejoin: miter"/>
    </g>
    <g id="line2d_21">
     <path d="M 209.435 54.570438 
L 219.435 54.570438 
L 229.435 54.570438 
" style="fill: none; stroke: #1f77b4; stroke-width: 1.5; stroke-linecap: square"/>
    </g>
    <g id="text_21">
     <!-- 4046 -->
     <g transform="translate(237.435 58.070438) scale(0.1 -0.1)">
      <use xlink:href="#DejaVuSans-34"/>
      <use xlink:href="#DejaVuSans-30" transform="translate(63.623047 0)"/>
      <use xlink:href="#DejaVuSans-34" transform="translate(127.246094 0)"/>
      <use xlink:href="#DejaVuSans-36" transform="translate(190.869141 0)"/>
     </g>
    </g>
    <g id="line2d_22">
     <path d="M 209.435 69.248563 
L 219.435 69.248563 
L 229.435 69.248563 
" style="fill: none; stroke: #ff7f0e; stroke-width: 1.5; stroke-linecap: square"/>
    </g>
    <g id="text_22">
     <!-- 4225 -->
     <g transform="translate(237.435 72.748563) scale(0.1 -0.1)">
      <use xlink:href="#DejaVuSans-34"/>
      <use xlink:href="#DejaVuSans-32" transform="translate(63.623047 0)"/>
      <use xlink:href="#DejaVuSans-32" transform="translate(127.246094 0)"/>
      <use xlink:href="#DejaVuSans-35" transform="translate(190.869141 0)"/>
     </g>
    </g>
    <g id="line2d_23">
     <path d="M 209.435 83.926688 
L 219.435 83.926688 
L 229.435 83.926688 
" style="fill: none; stroke: #2ca02c; stroke-width: 1.5; stroke-linecap: square"/>
    </g>
    <g id="text_23">
     <!-- 4770 -->
     <g transform="translate(237.435 87.426688) scale(0.1 -0.1)">
      <use xlink:href="#DejaVuSans-34"/>
      <use xlink:href="#DejaVuSans-37" transform="translate(63.623047 0)"/>
      <use xlink:href="#DejaVuSans-37" transform="translate(127.246094 0)"/>
      <use xlink:href="#DejaVuSans-30" transform="translate(190.869141 0)"/>
     </g>
    </g>
   </g>
  </g>
 </g>
 <defs>
  <clipPath id="p4420e0a30a">
   <rect x="57.6" y="41.472" width="357.12" height="266.112"/>
  </clipPath>
 </defs>
</svg>
