<?xml version="1.0" encoding="utf-8" standalone="no"?>
<!DOCTYPE svg PUBLIC "-//W3C//DTD SVG 1.1//EN"
  "http://www.w3.org/Graphics/SVG/1.1/DTD/svg11.dtd">
<svg xmlns:xlink="http://www.w3.org/1999/xlink" width="460.8pt" height="345.6pt" viewBox="0 0 460.8 345.6" xmlns="http://www.w3.org/2000/svg" version="1.1">
 <metadata>
  <rdf:RDF xmlns:dc="http://purl.org/dc/elements/1.1/" xmlns:cc="http://creativecommons.org/ns#" xmlns:rdf="http://www.w3.org/1999/02/22-rdf-syntax-ns#">
   <cc:Work>
    <dc:type rdf:resource="http://purl.org/dc/dcmitype/StillImage"/>
    <dc:date>2026-03-28T16:59:44.647994</dc:date>
    <dc:format>image/svg+xml</dc:format>
    <dc:creator>
     <cc:Agent>
      <dc:title>Matplotlib v3.10.6, https://matplotlib.org/</dc:title>
     </cc:Agent>
    </dc:creator>
   </cc:Work>
  </rdf:RDF>
 </metadata>
 <defs>
  <style type="text/css">*{stroke-linejoin: round; stroke-linecap: butt}</style>
 </defs>
 <g id="figure_1">
  <g id="patch_1">
   <path d="M 0 345.6 
L 460.8 345.6 
L 460.8 0 
L 0 0 
z
" style="fill: #ffffff"/>
  </g>
  <g id="axes_1">
   <g id="patch_2">
    <path d="M 57.6 307.584 
L 414.72 307.584 
L 414.72 41.472 
L 57.6 41.472 
z
" style="fill: #ffffff"/>
   </g>
   <g id="FillBetweenPolyCollection_1">
    <defs>
     <path id="m529d57bd3d" d="M 73.832727 -188.041093 
L 73.832727 -78.31116 
L 75.765195 -75.150121 
L 77.697662 -76.620635 
L 79.63013 -77.457465 
L 81.562597 -90.958924 
L 83.495065 -78.546999 
L 85.427532 -77.457556 
L 87.36 -77.949541 
L 89.292468 -80.65576 
L 91.224935 -78.731614 
L 93.157403 -79.223784 
L 95.08987 -78.378438 
L 97.022338 -77.493435 
L 98.954805 -81.248597 
L 100.887273 -82.67492 
L 102.81974 -82.493286 
L 104.752208 -82.410939 
L 106.684675 -88.596118 
L 108.617143 -85.56448 
L 110.54961 -80.04722 
L 112.482078 -83.913909 
L 114.414545 -82.958032 
L 116.347013 -86.810403 
L 118.279481 -85.122697 
L 120.211948 -82.374296 
L 122.144416 -75.863543 
L 124.076883 -84.248644 
L 126.009351 -77.525752 
L 127.941818 -77.5869 
L 129.874286 -75.775669 
L 131.806753 -75.195832 
L 133.739221 -80.531174 
L 135.671688 -77.312504 
L 137.604156 -74.175494 
L 139.536623 -76.672833 
L 141.469091 -79.128948 
L 143.401558 -70.656303 
L 145.334026 -70.388588 
L 147.266494 -68.017576 
L 149.198961 -69.194996 
L 151.131429 -69.473847 
L 153.063896 -70.83803 
L 154.996364 -68.608671 
L 156.928831 -73.703898 
L 158.861299 -72.184593 
L 160.793766 -71.037494 
L 162.726234 -68.496208 
L 164.658701 -68.067832 
L 166.591169 -69.419181 
L 168.523636 -71.164302 
L 170.456104 -68.439658 
L 172.388571 -70.744066 
L 174.321039 -73.61344 
L 176.253506 -76.051015 
L 178.185974 -71.010245 
L 180.118442 -66.718161 
L 182.050909 -74.173229 
L 183.983377 -85.095059 
L 185.915844 -76.288886 
L 187.848312 -71.390206 
L 189.780779 -74.675261 
L 191.713247 -74.126683 
L 193.645714 -75.583925 
L 195.578182 -71.958643 
L 197.510649 -75.074122 
L 199.443117 -75.40837 
L 201.375584 -80.460603 
L 203.308052 -74.954334 
L 205.240519 -77.502534 
L 207.172987 -81.263643 
L 209.105455 -79.49185 
L 211.037922 -78.324816 
L 212.97039 -74.619657 
L 214.902857 -80.081546 
L 216.835325 -80.82454 
L 218.767792 -77.71126 
L 220.70026 -81.445727 
L 222.632727 -77.594171 
L 224.565195 -78.084319 
L 226.497662 -74.773019 
L 228.43013 -72.456432 
L 230.362597 -72.241553 
L 232.295065 -73.838898 
L 234.227532 -76.957361 
L 236.16 -78.307827 
L 238.092468 -79.255705 
L 240.024935 -77.101933 
L 241.957403 -81.812324 
L 243.88987 -80.55211 
L 245.822338 -75.374767 
L 247.754805 -72.843128 
L 249.687273 -70.525935 
L 251.61974 -70.560607 
L 253.552208 -68.369893 
L 255.484675 -66.743854 
L 257.417143 -64.491061 
L 259.34961 -66.486492 
L 261.282078 -67.866427 
L 263.214545 -68.872148 
L 265.147013 -67.127142 
L 267.079481 -73.586067 
L 269.011948 -68.691636 
L 270.944416 -70.986798 
L 272.876883 -70.369002 
L 274.809351 -76.035414 
L 276.741818 -77.049916 
L 278.674286 -77.437544 
L 280.606753 -80.466131 
L 282.539221 -80.056459 
L 284.471688 -100.563674 
L 286.404156 -82.915079 
L 288.336623 -75.929617 
L 290.269091 -78.996209 
L 292.201558 -74.78188 
L 294.134026 -74.96754 
L 296.066494 -75.336473 
L 297.998961 -77.103147 
L 299.931429 -76.632527 
L 301.863896 -74.114556 
L 303.796364 -78.048725 
L 305.728831 -77.516323 
L 307.661299 -80.413925 
L 309.593766 -87.785541 
L 311.526234 -79.340349 
L 313.458701 -77.414703 
L 315.391169 -79.250051 
L 317.323636 -80.597555 
L 319.256104 -79.452501 
L 321.188571 -77.185252 
L 323.121039 -78.333236 
L 325.053506 -78.145963 
L 326.985974 -78.704385 
L 328.918442 -75.283869 
L 330.850909 -75.648812 
L 332.783377 -74.213918 
L 334.715844 -73.735653 
L 336.648312 -73.011954 
L 338.580779 -73.275407 
L 340.513247 -74.088677 
L 342.445714 -71.890503 
L 344.378182 -72.00046 
L 346.310649 -70.080136 
L 348.243117 -68.5951 
L 350.175584 -69.029016 
L 352.108052 -70.615634 
L 354.040519 -70.405761 
L 355.972987 -72.137333 
L 357.905455 -74.085751 
L 359.837922 -74.180559 
L 361.77039 -75.741301 
L 363.702857 -73.874034 
L 365.635325 -70.440834 
L 367.567792 -75.819751 
L 369.50026 -76.439768 
L 371.432727 -74.52316 
L 373.365195 -71.719049 
L 375.297662 -79.949289 
L 377.23013 -81.151789 
L 379.162597 -78.769861 
L 381.095065 -81.866333 
L 383.027532 -82.275104 
L 384.96 -100.005152 
L 386.892468 -86.819468 
L 388.824935 -78.705173 
L 390.757403 -79.584985 
L 392.68987 -80.057194 
L 394.622338 -82.13803 
L 396.554805 -81.394404 
L 398.487273 -83.007081 
L 398.487273 -204.207242 
L 398.487273 -204.207242 
L 396.554805 -197.341918 
L 394.622338 -204.577265 
L 392.68987 -207.886127 
L 390.757403 -194.699579 
L 388.824935 -190.704552 
L 386.892468 -220.724455 
L 384.96 -279.166456 
L 383.027532 -202.453754 
L 381.095065 -205.005222 
L 379.162597 -183.745001 
L 377.23013 -198.253508 
L 375.297662 -202.826114 
L 373.365195 -155.01346 
L 371.432727 -170.773269 
L 369.50026 -179.18152 
L 367.567792 -181.628683 
L 365.635325 -149.798902 
L 363.702857 -168.132696 
L 361.77039 -174.764492 
L 359.837922 -164.699214 
L 357.905455 -167.910962 
L 355.972987 -151.751277 
L 354.040519 -148.707924 
L 352.108052 -146.515668 
L 350.175584 -143.848661 
L 348.243117 -146.60407 
L 346.310649 -147.565209 
L 344.378182 -154.783481 
L 342.445714 -158.132307 
L 340.513247 -165.207136 
L 338.580779 -166.118318 
L 336.648312 -174.047751 
L 334.715844 -177.54813 
L 332.783377 -174.671388 
L 330.850909 -173.560256 
L 328.918442 -169.93227 
L 326.985974 -185.953722 
L 325.053506 -184.807996 
L 323.121039 -198.889357 
L 321.188571 -192.418322 
L 319.256104 -195.083588 
L 317.323636 -194.804049 
L 315.391169 -184.607987 
L 313.458701 -180.747857 
L 311.526234 -187.252694 
L 309.593766 -235.931761 
L 307.661299 -197.837148 
L 305.728831 -185.211745 
L 303.796364 -189.701012 
L 301.863896 -179.894506 
L 299.931429 -180.980796 
L 297.998961 -176.169612 
L 296.066494 -169.43524 
L 294.134026 -172.459345 
L 292.201558 -168.970873 
L 290.269091 -192.150081 
L 288.336623 -175.892962 
L 286.404156 -212.391073 
L 284.471688 -292.032 
L 282.539221 -203.817794 
L 280.606753 -201.315294 
L 278.674286 -189.588719 
L 276.741818 -181.949303 
L 274.809351 -191.441793 
L 272.876883 -152.647452 
L 270.944416 -152.542087 
L 269.011948 -149.654508 
L 267.079481 -168.749332 
L 265.147013 -134.084066 
L 263.214545 -143.969506 
L 261.282078 -135.107608 
L 259.34961 -133.902024 
L 257.417143 -124.715629 
L 255.484675 -134.976909 
L 253.552208 -141.153744 
L 251.61974 -148.258481 
L 249.687273 -156.623915 
L 247.754805 -166.004362 
L 245.822338 -169.200559 
L 243.88987 -194.08885 
L 241.957403 -212.39718 
L 240.024935 -185.214084 
L 238.092468 -190.628297 
L 236.16 -179.242067 
L 234.227532 -182.950356 
L 232.295065 -161.095755 
L 230.362597 -160.517857 
L 228.43013 -168.211205 
L 226.497662 -172.31267 
L 224.565195 -186.441598 
L 222.632727 -180.745264 
L 220.70026 -201.962637 
L 218.767792 -192.539379 
L 216.835325 -202.973659 
L 214.902857 -196.302131 
L 212.97039 -174.895807 
L 211.037922 -179.25355 
L 209.105455 -204.980483 
L 207.172987 -199.140194 
L 205.240519 -197.847101 
L 203.308052 -179.15589 
L 201.375584 -188.062976 
L 199.443117 -170.116248 
L 197.510649 -170.991476 
L 195.578182 -167.738423 
L 193.645714 -178.616291 
L 191.713247 -174.501404 
L 189.780779 -184.734169 
L 187.848312 -152.953169 
L 185.915844 -174.26207 
L 183.983377 -225.819509 
L 182.050909 -167.691082 
L 180.118442 -128.461213 
L 178.185974 -159.791157 
L 176.253506 -169.537487 
L 174.321039 -175.539871 
L 172.388571 -152.063924 
L 170.456104 -142.615097 
L 168.523636 -155.844722 
L 166.591169 -155.303637 
L 164.658701 -134.207976 
L 162.726234 -142.890934 
L 160.793766 -161.609797 
L 158.861299 -159.991062 
L 156.928831 -171.004748 
L 154.996364 -143.545158 
L 153.063896 -149.928077 
L 151.131429 -147.097129 
L 149.198961 -142.817194 
L 147.266494 -138.026775 
L 145.334026 -150.032631 
L 143.401558 -160.371551 
L 141.469091 -192.182786 
L 139.536623 -177.342264 
L 137.604156 -173.044011 
L 135.671688 -188.709513 
L 133.739221 -198.423358 
L 131.806753 -181.742117 
L 129.874286 -182.991794 
L 127.941818 -188.368506 
L 126.009351 -186.671259 
L 124.076883 -228.813755 
L 122.144416 -198.255714 
L 120.211948 -210.871193 
L 118.279481 -231.9605 
L 116.347013 -239.607861 
L 114.414545 -231.097101 
L 112.482078 -229.305785 
L 110.54961 -206.140868 
L 108.617143 -228.043791 
L 106.684675 -253.239933 
L 104.752208 -198.366289 
L 102.81974 -204.301276 
L 100.887273 -218.273897 
L 98.954805 -202.865068 
L 97.022338 -188.790499 
L 95.08987 -207.182678 
L 93.157403 -188.285761 
L 91.224935 -191.218824 
L 89.292468 -200.300716 
L 87.36 -186.553788 
L 85.427532 -185.870697 
L 83.495065 -197.856562 
L 81.562597 -251.887077 
L 79.63013 -186.153065 
L 77.697662 -177.237976 
L 75.765195 -175.357842 
L 73.832727 -188.041093 
z
" style="stroke: #1f77b4; stroke-opacity: 0.2"/>
    </defs>
    <g clip-path="url(#pc5ca6d090d)">
     <use xlink:href="#m529d57bd3d" x="0" y="345.6" style="fill: #1f77b4; fill-opacity: 0.2; stroke: #1f77b4; stroke-opacity: 0.2"/>
    </g>
   </g>
   <g id="FillBetweenPolyCollection_2">
    <defs>
     <path id="m7870fb7535" d="M 73.832727 -200.532008 
L 73.832727 -83.39588 
L 75.765195 -81.354004 
L 77.697662 -78.707529 
L 79.63013 -76.740242 
L 81.562597 -96.322034 
L 83.495065 -83.385058 
L 85.427532 -73.786915 
L 87.36 -79.056365 
L 89.292468 -82.866898 
L 91.224935 -76.730472 
L 93.157403 -77.266698 
L 95.08987 -82.221944 
L 97.022338 -79.533532 
L 98.954805 -79.269923 
L 100.887273 -77.754861 
L 102.81974 -80.151935 
L 104.752208 -77.808551 
L 106.684675 -91.130102 
L 108.617143 -84.925766 
L 110.54961 -78.109947 
L 112.482078 -81.888925 
L 114.414545 -80.40974 
L 116.347013 -80.963128 
L 118.279481 -83.01981 
L 120.211948 -82.596173 
L 122.144416 -79.571749 
L 124.076883 -83.935514 
L 126.009351 -80.364814 
L 127.941818 -81.755949 
L 129.874286 -77.666326 
L 131.806753 -80.44095 
L 133.739221 -85.815559 
L 135.671688 -81.835579 
L 137.604156 -81.619724 
L 139.536623 -80.244668 
L 141.469091 -86.581948 
L 143.401558 -86.30827 
L 145.334026 -84.576856 
L 147.266494 -84.74432 
L 149.198961 -85.270041 
L 151.131429 -82.319052 
L 153.063896 -85.341965 
L 154.996364 -77.76939 
L 156.928831 -85.369934 
L 158.861299 -81.05975 
L 160.793766 -80.752353 
L 162.726234 -76.420336 
L 164.658701 -73.64509 
L 166.591169 -81.129269 
L 168.523636 -75.889576 
L 170.456104 -73.569923 
L 172.388571 -76.395658 
L 174.321039 -89.83939 
L 176.253506 -84.63302 
L 178.185974 -84.331501 
L 180.118442 -85.805289 
L 182.050909 -83.483547 
L 183.983377 -101.845642 
L 185.915844 -84.516603 
L 187.848312 -80.611891 
L 189.780779 -84.121362 
L 191.713247 -81.679477 
L 193.645714 -83.844973 
L 195.578182 -85.662614 
L 197.510649 -83.929535 
L 199.443117 -79.864692 
L 201.375584 -80.503062 
L 203.308052 -83.736416 
L 205.240519 -90.771242 
L 207.172987 -91.971118 
L 209.105455 -95.035144 
L 211.037922 -90.496024 
L 212.97039 -84.298764 
L 214.902857 -85.666505 
L 216.835325 -85.209899 
L 218.767792 -81.269307 
L 220.70026 -82.703069 
L 222.632727 -81.842443 
L 224.565195 -84.72878 
L 226.497662 -81.397983 
L 228.43013 -77.070543 
L 230.362597 -78.530658 
L 232.295065 -76.668893 
L 234.227532 -76.908894 
L 236.16 -78.000118 
L 238.092468 -75.594505 
L 240.024935 -77.007089 
L 241.957403 -80.221308 
L 243.88987 -77.156171 
L 245.822338 -74.011538 
L 247.754805 -74.686364 
L 249.687273 -74.158998 
L 251.61974 -74.752836 
L 253.552208 -73.50689 
L 255.484675 -70.637474 
L 257.417143 -69.233892 
L 259.34961 -68.785543 
L 261.282078 -69.549319 
L 263.214545 -70.829562 
L 265.147013 -70.07997 
L 267.079481 -75.846062 
L 269.011948 -76.397617 
L 270.944416 -77.130126 
L 272.876883 -76.834971 
L 274.809351 -85.943515 
L 276.741818 -85.288626 
L 278.674286 -83.04373 
L 280.606753 -86.991268 
L 282.539221 -81.015122 
L 284.471688 -101.39117 
L 286.404156 -81.381783 
L 288.336623 -78.133776 
L 290.269091 -80.652814 
L 292.201558 -79.594292 
L 294.134026 -74.769683 
L 296.066494 -75.181472 
L 297.998961 -74.610748 
L 299.931429 -75.215038 
L 301.863896 -77.42772 
L 303.796364 -76.91077 
L 305.728831 -76.040683 
L 307.661299 -79.586591 
L 309.593766 -86.177969 
L 311.526234 -74.823607 
L 313.458701 -75.679314 
L 315.391169 -79.560775 
L 317.323636 -77.153448 
L 319.256104 -77.449562 
L 321.188571 -80.111181 
L 323.121039 -78.765891 
L 325.053506 -77.969241 
L 326.985974 -78.35876 
L 328.918442 -78.135816 
L 330.850909 -79.011074 
L 332.783377 -77.102717 
L 334.715844 -77.097695 
L 336.648312 -77.001764 
L 338.580779 -73.073747 
L 340.513247 -71.450951 
L 342.445714 -72.621425 
L 344.378182 -70.596293 
L 346.310649 -71.510408 
L 348.243117 -71.599926 
L 350.175584 -71.890059 
L 352.108052 -69.726137 
L 354.040519 -72.296036 
L 355.972987 -74.266718 
L 357.905455 -75.689153 
L 359.837922 -75.666104 
L 361.77039 -76.841545 
L 363.702857 -68.943162 
L 365.635325 -69.053429 
L 367.567792 -77.806616 
L 369.50026 -79.307378 
L 371.432727 -74.540805 
L 373.365195 -73.033228 
L 375.297662 -83.955381 
L 377.23013 -78.98848 
L 379.162597 -80.578931 
L 381.095065 -84.933074 
L 383.027532 -81.513969 
L 384.96 -104.573021 
L 386.892468 -78.955178 
L 388.824935 -79.094248 
L 390.757403 -77.537683 
L 392.68987 -78.888759 
L 394.622338 -79.982016 
L 396.554805 -79.157671 
L 398.487273 -79.684622 
L 398.487273 -182.486493 
L 398.487273 -182.486493 
L 396.554805 -171.529692 
L 394.622338 -169.353152 
L 392.68987 -174.484867 
L 390.757403 -164.103689 
L 388.824935 -172.016723 
L 386.892468 -177.155737 
L 384.96 -282.077166 
L 383.027532 -189.505445 
L 381.095065 -206.932791 
L 379.162597 -176.717074 
L 377.23013 -166.737447 
L 375.297662 -195.917118 
L 373.365195 -145.97625 
L 371.432727 -164.789517 
L 369.50026 -183.543317 
L 367.567792 -171.131531 
L 365.635325 -133.784251 
L 363.702857 -138.878105 
L 361.77039 -156.815951 
L 359.837922 -154.727191 
L 357.905455 -157.844649 
L 355.972987 -146.563825 
L 354.040519 -148.372006 
L 352.108052 -134.781979 
L 350.175584 -141.333895 
L 348.243117 -144.795951 
L 346.310649 -144.233356 
L 344.378182 -140.784564 
L 342.445714 -143.685543 
L 340.513247 -144.813236 
L 338.580779 -150.633198 
L 336.648312 -174.065571 
L 334.715844 -170.490886 
L 332.783377 -175.7099 
L 330.850909 -181.124159 
L 328.918442 -172.178629 
L 326.985974 -171.569848 
L 325.053506 -168.781535 
L 323.121039 -171.333674 
L 321.188571 -170.547527 
L 319.256104 -164.862479 
L 317.323636 -170.356263 
L 315.391169 -170.476193 
L 313.458701 -159.610849 
L 311.526234 -157.157713 
L 309.593766 -202.735844 
L 307.661299 -174.245349 
L 305.728831 -166.579112 
L 303.796364 -165.854212 
L 301.863896 -169.125357 
L 299.931429 -159.955179 
L 297.998961 -159.064737 
L 296.066494 -155.52933 
L 294.134026 -155.597762 
L 292.201558 -171.044632 
L 290.269091 -174.913373 
L 288.336623 -168.975908 
L 286.404156 -182.548091 
L 284.471688 -266.714699 
L 282.539221 -177.173402 
L 280.606753 -209.218797 
L 278.674286 -180.915008 
L 276.741818 -204.801789 
L 274.809351 -211.975227 
L 272.876883 -160.915151 
L 270.944416 -162.565874 
L 269.011948 -158.523201 
L 267.079481 -167.625437 
L 265.147013 -134.838317 
L 263.214545 -141.820299 
L 261.282078 -138.947563 
L 259.34961 -127.407175 
L 257.417143 -127.630705 
L 255.484675 -140.480194 
L 253.552208 -145.897509 
L 251.61974 -156.874359 
L 249.687273 -149.881514 
L 247.754805 -149.626026 
L 245.822338 -158.499309 
L 243.88987 -169.127732 
L 241.957403 -177.166108 
L 240.024935 -165.821125 
L 238.092468 -159.785378 
L 236.16 -170.718851 
L 234.227532 -166.867215 
L 232.295065 -162.975787 
L 230.362597 -171.356921 
L 228.43013 -167.277703 
L 226.497662 -180.98964 
L 224.565195 -192.780681 
L 222.632727 -183.531145 
L 220.70026 -190.940019 
L 218.767792 -181.087129 
L 216.835325 -195.280118 
L 214.902857 -202.248431 
L 212.97039 -193.431789 
L 211.037922 -204.346097 
L 209.105455 -260.557632 
L 207.172987 -225.985764 
L 205.240519 -212.984195 
L 203.308052 -190.848176 
L 201.375584 -171.402726 
L 199.443117 -172.974759 
L 197.510649 -194.748731 
L 195.578182 -207.983965 
L 193.645714 -195.523177 
L 191.713247 -183.020506 
L 189.780779 -200.401912 
L 187.848312 -182.700904 
L 185.915844 -207.559434 
L 183.983377 -273.377572 
L 182.050909 -198.974852 
L 180.118442 -205.49405 
L 178.185974 -202.201475 
L 176.253506 -195.278321 
L 174.321039 -227.414419 
L 172.388571 -161.504104 
L 170.456104 -152.787975 
L 168.523636 -166.685556 
L 166.591169 -180.387103 
L 164.658701 -145.683911 
L 162.726234 -159.58913 
L 160.793766 -179.456834 
L 158.861299 -183.183921 
L 156.928831 -206.618109 
L 154.996364 -180.968731 
L 153.063896 -212.79851 
L 151.131429 -197.123142 
L 149.198961 -200.969354 
L 147.266494 -208.491643 
L 145.334026 -198.590172 
L 143.401558 -215.148818 
L 141.469091 -204.883279 
L 139.536623 -175.644641 
L 137.604156 -193.546516 
L 135.671688 -194.365698 
L 133.739221 -205.277332 
L 131.806753 -184.208678 
L 129.874286 -177.75219 
L 127.941818 -189.083194 
L 126.009351 -189.076706 
L 124.076883 -202.456663 
L 122.144416 -177.705589 
L 120.211948 -197.078478 
L 118.279481 -190.095795 
L 116.347013 -189.345375 
L 114.414545 -179.078725 
L 112.482078 -191.332073 
L 110.54961 -169.368925 
L 108.617143 -196.286682 
L 106.684675 -237.254976 
L 104.752208 -173.029881 
L 102.81974 -188.64194 
L 100.887273 -171.857355 
L 98.954805 -184.259311 
L 97.022338 -173.828822 
L 95.08987 -189.232591 
L 93.157403 -164.257999 
L 91.224935 -167.956161 
L 89.292468 -207.573132 
L 87.36 -182.455918 
L 85.427532 -153.293806 
L 83.495065 -193.584262 
L 81.562597 -255.328439 
L 79.63013 -166.873009 
L 77.697662 -179.689601 
L 75.765195 -183.132822 
L 73.832727 -200.532008 
z
" style="stroke: #ff7f0e; stroke-opacity: 0.2"/>
    </defs>
    <g clip-path="url(#pc5ca6d090d)">
     <use xlink:href="#m7870fb7535" x="0" y="345.6" style="fill: #ff7f0e; fill-opacity: 0.2; stroke: #ff7f0e; stroke-opacity: 0.2"/>
    </g>
   </g>
   <g id="FillBetweenPolyCollection_3">
    <defs>
     <path id="mad964a8d52" d="M 73.832727 -58.731523 
L 73.832727 -51.23791 
L 75.765195 -51.311151 
L 77.697662 -51.188883 
L 79.63013 -51.101314 
L 81.562597 -52.25148 
L 83.495065 -51.020161 
L 85.427532 -51.302366 
L 87.36 -51.361857 
L 89.292468 -51.654916 
L 91.224935 -51.237125 
L 93.157403 -51.365739 
L 95.08987 -51.620583 
L 97.022338 -51.292745 
L 98.954805 -51.46419 
L 100.887273 -51.22009 
L 102.81974 -51.594266 
L 104.752208 -51.315648 
L 106.684675 -52.079144 
L 108.617143 -51.379545 
L 110.54961 -51.612464 
L 112.482078 -51.446038 
L 114.414545 -51.345197 
L 116.347013 -51.773724 
L 118.279481 -51.813322 
L 120.211948 -52.384841 
L 122.144416 -51.85509 
L 124.076883 -52.428553 
L 126.009351 -51.721644 
L 127.941818 -51.907971 
L 129.874286 -51.775254 
L 131.806753 -51.561323 
L 133.739221 -51.695467 
L 135.671688 -51.902586 
L 137.604156 -51.363041 
L 139.536623 -51.653837 
L 141.469091 -51.842645 
L 143.401558 -51.787775 
L 145.334026 -51.8904 
L 147.266494 -51.923881 
L 149.198961 -52.138326 
L 151.131429 -52.997723 
L 153.063896 -52.131412 
L 154.996364 -52.069011 
L 156.928831 -52.706446 
L 158.861299 -51.856766 
L 160.793766 -51.326577 
L 162.726234 -51.124069 
L 164.658701 -50.920313 
L 166.591169 -51.329395 
L 168.523636 -51.73228 
L 170.456104 -51.970173 
L 172.388571 -51.969428 
L 174.321039 -52.841538 
L 176.253506 -52.201248 
L 178.185974 -52.738157 
L 180.118442 -52.677725 
L 182.050909 -52.966724 
L 183.983377 -54.845885 
L 185.915844 -53.140922 
L 187.848312 -52.536159 
L 189.780779 -53.043156 
L 191.713247 -53.15214 
L 193.645714 -52.859287 
L 195.578182 -52.836219 
L 197.510649 -53.206776 
L 199.443117 -52.807098 
L 201.375584 -52.730576 
L 203.308052 -53.357484 
L 205.240519 -52.776098 
L 207.172987 -52.642399 
L 209.105455 -53.769778 
L 211.037922 -53.156259 
L 212.97039 -53.30864 
L 214.902857 -53.203046 
L 216.835325 -53.895165 
L 218.767792 -53.329508 
L 220.70026 -53.201107 
L 222.632727 -52.918534 
L 224.565195 -53.263435 
L 226.497662 -52.349171 
L 228.43013 -51.647996 
L 230.362597 -51.570611 
L 232.295065 -51.193348 
L 234.227532 -51.057773 
L 236.16 -51.085833 
L 238.092468 -50.826881 
L 240.024935 -50.729959 
L 241.957403 -50.734441 
L 243.88987 -50.557116 
L 245.822338 -50.460357 
L 247.754805 -50.477212 
L 249.687273 -50.537694 
L 251.61974 -50.53057 
L 253.552208 -50.500073 
L 255.484675 -50.463051 
L 257.417143 -50.44105 
L 259.34961 -50.642043 
L 261.282078 -50.528187 
L 263.214545 -50.323236 
L 265.147013 -50.174302 
L 267.079481 -50.334914 
L 269.011948 -50.335996 
L 270.944416 -50.427188 
L 272.876883 -50.695859 
L 274.809351 -50.712815 
L 276.741818 -50.611002 
L 278.674286 -50.831519 
L 280.606753 -51.546386 
L 282.539221 -51.32217 
L 284.471688 -53.284568 
L 286.404156 -51.449064 
L 288.336623 -51.200745 
L 290.269091 -51.329834 
L 292.201558 -51.169376 
L 294.134026 -51.105236 
L 296.066494 -50.843979 
L 297.998961 -50.767818 
L 299.931429 -50.736674 
L 301.863896 -50.803453 
L 303.796364 -50.70844 
L 305.728831 -50.770733 
L 307.661299 -50.864539 
L 309.593766 -51.183888 
L 311.526234 -50.826403 
L 313.458701 -50.690527 
L 315.391169 -50.856265 
L 317.323636 -50.726252 
L 319.256104 -50.865678 
L 321.188571 -50.873665 
L 323.121039 -50.766345 
L 325.053506 -51.127995 
L 326.985974 -50.85626 
L 328.918442 -50.945986 
L 330.850909 -50.601417 
L 332.783377 -50.616978 
L 334.715844 -50.68109 
L 336.648312 -50.711084 
L 338.580779 -50.531033 
L 340.513247 -50.413499 
L 342.445714 -50.44475 
L 344.378182 -50.290906 
L 346.310649 -50.221366 
L 348.243117 -50.134931 
L 350.175584 -50.112 
L 352.108052 -50.147021 
L 354.040519 -50.169454 
L 355.972987 -50.281789 
L 357.905455 -50.263758 
L 359.837922 -50.271928 
L 361.77039 -50.293345 
L 363.702857 -50.316326 
L 365.635325 -50.19046 
L 367.567792 -50.47914 
L 369.50026 -50.186686 
L 371.432727 -50.439881 
L 373.365195 -50.54191 
L 375.297662 -50.579285 
L 377.23013 -50.673556 
L 379.162597 -50.785885 
L 381.095065 -50.968095 
L 383.027532 -50.524496 
L 384.96 -51.280854 
L 386.892468 -50.680859 
L 388.824935 -50.598939 
L 390.757403 -50.620761 
L 392.68987 -50.587542 
L 394.622338 -50.738708 
L 396.554805 -50.507434 
L 398.487273 -50.652485 
L 398.487273 -58.538847 
L 398.487273 -58.538847 
L 396.554805 -56.725836 
L 394.622338 -57.566912 
L 392.68987 -55.79181 
L 390.757403 -57.844839 
L 388.824935 -55.409851 
L 386.892468 -57.146104 
L 384.96 -61.313905 
L 383.027532 -55.790359 
L 381.095065 -59.858695 
L 379.162597 -56.473943 
L 377.23013 -56.74514 
L 375.297662 -56.459797 
L 373.365195 -55.830048 
L 371.432727 -55.947989 
L 369.50026 -53.863657 
L 367.567792 -56.070218 
L 365.635325 -53.755409 
L 363.702857 -54.025313 
L 361.77039 -54.165832 
L 359.837922 -53.917583 
L 357.905455 -54.136385 
L 355.972987 -54.243333 
L 354.040519 -54.269884 
L 352.108052 -53.691157 
L 350.175584 -53.68882 
L 348.243117 -53.782645 
L 346.310649 -54.108819 
L 344.378182 -54.983974 
L 342.445714 -55.181925 
L 340.513247 -55.316902 
L 338.580779 -56.414261 
L 336.648312 -56.619097 
L 334.715844 -56.720661 
L 332.783377 -56.578563 
L 330.850909 -56.418529 
L 328.918442 -57.94656 
L 326.985974 -58.63367 
L 325.053506 -58.919396 
L 323.121039 -56.918786 
L 321.188571 -59.015598 
L 319.256104 -56.62387 
L 317.323636 -57.252819 
L 315.391169 -56.95923 
L 313.458701 -56.375514 
L 311.526234 -56.947893 
L 309.593766 -59.310976 
L 307.661299 -56.628914 
L 305.728831 -56.46898 
L 303.796364 -56.749529 
L 301.863896 -56.576353 
L 299.931429 -56.385909 
L 297.998961 -56.235249 
L 296.066494 -56.777819 
L 294.134026 -57.499733 
L 292.201558 -58.101686 
L 290.269091 -59.312019 
L 288.336623 -58.869654 
L 286.404156 -59.045919 
L 284.471688 -68.152634 
L 282.539221 -58.7464 
L 280.606753 -60.223785 
L 278.674286 -56.343671 
L 276.741818 -55.814379 
L 274.809351 -55.44815 
L 272.876883 -55.759212 
L 270.944416 -54.384086 
L 269.011948 -54.010499 
L 267.079481 -54.606432 
L 265.147013 -53.321201 
L 263.214545 -53.85766 
L 261.282078 -54.631247 
L 259.34961 -55.137081 
L 257.417143 -54.478411 
L 255.484675 -54.677648 
L 253.552208 -54.301257 
L 251.61974 -54.974024 
L 249.687273 -54.986078 
L 247.754805 -54.864843 
L 245.822338 -54.819626 
L 243.88987 -55.352108 
L 241.957403 -55.388665 
L 240.024935 -55.745941 
L 238.092468 -56.532936 
L 236.16 -57.96525 
L 234.227532 -58.081047 
L 232.295065 -58.182825 
L 230.362597 -59.93176 
L 228.43013 -60.170322 
L 226.497662 -63.567847 
L 224.565195 -68.533803 
L 222.632727 -67.020348 
L 220.70026 -66.858281 
L 218.767792 -67.144246 
L 216.835325 -69.178843 
L 214.902857 -66.881048 
L 212.97039 -68.302982 
L 211.037922 -68.864042 
L 209.105455 -70.899382 
L 207.172987 -64.676388 
L 205.240519 -67.012502 
L 203.308052 -70.063081 
L 201.375584 -68.223789 
L 199.443117 -68.515926 
L 197.510649 -69.054501 
L 195.578182 -68.33143 
L 193.645714 -68.745159 
L 191.713247 -67.427974 
L 189.780779 -66.698913 
L 187.848312 -64.364799 
L 185.915844 -69.693863 
L 183.983377 -77.644415 
L 182.050909 -68.042172 
L 180.118442 -65.400433 
L 178.185974 -65.329429 
L 176.253506 -63.612332 
L 174.321039 -66.869635 
L 172.388571 -62.559794 
L 170.456104 -61.874298 
L 168.523636 -60.786129 
L 166.591169 -60.462394 
L 164.658701 -57.928483 
L 162.726234 -58.615756 
L 160.793766 -58.134966 
L 158.861299 -62.326781 
L 156.928831 -64.883139 
L 154.996364 -62.290714 
L 153.063896 -62.432947 
L 151.131429 -67.062032 
L 149.198961 -62.959418 
L 147.266494 -61.059471 
L 145.334026 -61.619437 
L 143.401558 -61.55329 
L 141.469091 -62.190604 
L 139.536623 -61.687766 
L 137.604156 -59.554474 
L 135.671688 -62.838446 
L 133.739221 -60.246799 
L 131.806753 -59.972508 
L 129.874286 -61.283291 
L 127.941818 -62.203945 
L 126.009351 -60.143278 
L 124.076883 -64.556876 
L 122.144416 -60.706537 
L 120.211948 -64.368873 
L 118.279481 -61.441192 
L 116.347013 -62.111497 
L 114.414545 -59.275359 
L 112.482078 -59.28796 
L 110.54961 -60.245632 
L 108.617143 -59.139325 
L 106.684675 -62.099869 
L 104.752208 -59.298806 
L 102.81974 -60.591098 
L 100.887273 -58.146095 
L 98.954805 -59.199796 
L 97.022338 -58.372442 
L 95.08987 -61.221153 
L 93.157403 -59.00516 
L 91.224935 -58.663941 
L 89.292468 -61.321459 
L 87.36 -59.967113 
L 85.427532 -58.512097 
L 83.495065 -57.675786 
L 81.562597 -64.811291 
L 79.63013 -57.79501 
L 77.697662 -58.490747 
L 75.765195 -59.169596 
L 73.832727 -58.731523 
z
" style="stroke: #2ca02c; stroke-opacity: 0.2"/>
    </defs>
    <g clip-path="url(#pc5ca6d090d)">
     <use xlink:href="#mad964a8d52" x="0" y="345.6" style="fill: #2ca02c; fill-opacity: 0.2; stroke: #2ca02c; stroke-opacity: 0.2"/>
    </g>
   </g>
   <g id="matplotlib.axis_1">
    <g id="xtick_1">
     <g id="line2d_1">
      <defs>
       <path id="m8dd1cfcf8c" d="M 0 0 
L 0 3.5 
" style="stroke: #000000; stroke-width: 0.8"/>
      </defs>
      <g>
       <use xlink:href="#m8dd1cfcf8c" x="73.004527" y="307.584" style="stroke: #000000; stroke-width: 0.8"/>
      </g>
     </g>
     <g id="text_1">
      <!-- 2015-01 -->
      <g transform="translate(60.183245 349.501817) rotate(-45) scale(0.1 -0.1)">
       <defs>
        <path id="DejaVuSans-32" d="M 1228 531 
L 3431 531 
L 3431 0 
L 469 0 
L 469 531 
Q 828 903 1448 1529 
Q 2069 2156 2228 2338 
Q 2531 2678 2651 2914 
Q 2772 3150 2772 3378 
Q 2772 3750 2511 3984 
Q 2250 4219 1831 4219 
Q 1534 4219 1204 4116 
Q 875 4013 500 3803 
L 500 4441 
Q 881 4594 1212 4672 
Q 1544 4750 1819 4750 
Q 2544 4750 2975 4387 
Q 3406 4025 3406 3419 
Q 3406 3131 3298 2873 
Q 3191 2616 2906 2266 
Q 2828 2175 2409 1742 
Q 1991 1309 1228 531 
z
" transform="scale(0.015625)"/>
        <path id="DejaVuSans-30" d="M 2034 4250 
Q 1547 4250 1301 3770 
Q 1056 3291 1056 2328 
Q 1056 1369 1301 889 
Q 1547 409 2034 409 
Q 2525 409 2770 889 
Q 3016 1369 3016 2328 
Q 3016 3291 2770 3770 
Q 2525 4250 2034 4250 
z
M 2034 4750 
Q 2819 4750 3233 4129 
Q 3647 3509 3647 2328 
Q 3647 1150 3233 529 
Q 2819 -91 2034 -91 
Q 1250 -91 836 529 
Q 422 1150 422 2328 
Q 422 3509 836 4129 
Q 1250 4750 2034 4750 
z
" transform="scale(0.015625)"/>
        <path id="DejaVuSans-31" d="M 794 531 
L 1825 531 
L 1825 4091 
L 703 3866 
L 703 4441 
L 1819 4666 
L 2450 4666 
L 2450 531 
L 3481 531 
L 3481 0 
L 794 0 
L 794 531 
z
" transform="scale(0.015625)"/>
        <path id="DejaVuSans-35" d="M 691 4666 
L 3169 4666 
L 3169 4134 
L 1269 4134 
L 1269 2991 
Q 1406 3038 1543 3061 
Q 1681 3084 1819 3084 
Q 2600 3084 3056 2656 
Q 3513 2228 3513 1497 
Q 3513 744 3044 326 
Q 2575 -91 1722 -91 
Q 1428 -91 1123 -41 
Q 819 9 494 109 
L 494 744 
Q 775 591 1075 516 
Q 1375 441 1709 441 
Q 2250 441 2565 725 
Q 2881 1009 2881 1497 
Q 2881 1984 2565 2268 
Q 2250 2553 1709 2553 
Q 1456 2553 1204 2497 
Q 953 2441 691 2322 
L 691 4666 
z
" transform="scale(0.015625)"/>
        <path id="DejaVuSans-2d" d="M 313 2009 
L 1997 2009 
L 1997 1497 
L 313 1497 
L 313 2009 
z
" transform="scale(0.015625)"/>
       </defs>
       <use xlink:href="#DejaVuSans-32"/>
       <use xlink:href="#DejaVuSans-30" transform="translate(63.623047 0)"/>
       <use xlink:href="#DejaVuSans-31" transform="translate(127.246094 0)"/>
       <use xlink:href="#DejaVuSans-35" transform="translate(190.869141 0)"/>
       <use xlink:href="#DejaVuSans-2d" transform="translate(254.492188 0)"/>
       <use xlink:href="#DejaVuSans-30" transform="translate(290.576172 0)"/>
       <use xlink:href="#DejaVuSans-31" transform="translate(354.199219 0)"/>
      </g>
     </g>
    </g>
    <g id="xtick_2">
     <g id="line2d_2">
      <g>
       <use xlink:href="#m8dd1cfcf8c" x="106.132542" y="307.584" style="stroke: #000000; stroke-width: 0.8"/>
      </g>
     </g>
     <g id="text_2">
      <!-- 2015-05 -->
      <g transform="translate(93.311259 349.501817) rotate(-45) scale(0.1 -0.1)">
       <use xlink:href="#DejaVuSans-32"/>
       <use xlink:href="#DejaVuSans-30" transform="translate(63.623047 0)"/>
       <use xlink:href="#DejaVuSans-31" transform="translate(127.246094 0)"/>
       <use xlink:href="#DejaVuSans-35" transform="translate(190.869141 0)"/>
       <use xlink:href="#DejaVuSans-2d" transform="translate(254.492188 0)"/>
       <use xlink:href="#DejaVuSans-30" transform="translate(290.576172 0)"/>
       <use xlink:href="#DejaVuSans-35" transform="translate(354.199219 0)"/>
      </g>
     </g>
    </g>
    <g id="xtick_3">
     <g id="line2d_3">
      <g>
       <use xlink:href="#m8dd1cfcf8c" x="140.088757" y="307.584" style="stroke: #000000; stroke-width: 0.8"/>
      </g>
     </g>
     <g id="text_3">
      <!-- 2015-09 -->
      <g transform="translate(127.267475 349.501817) rotate(-45) scale(0.1 -0.1)">
       <defs>
        <path id="DejaVuSans-39" d="M 703 97 
L 703 672 
Q 941 559 1184 500 
Q 1428 441 1663 441 
Q 2288 441 2617 861 
Q 2947 1281 2994 2138 
Q 2813 1869 2534 1725 
Q 2256 1581 1919 1581 
Q 1219 1581 811 2004 
Q 403 2428 403 3163 
Q 403 3881 828 4315 
Q 1253 4750 1959 4750 
Q 2769 4750 3195 4129 
Q 3622 3509 3622 2328 
Q 3622 1225 3098 567 
Q 2575 -91 1691 -91 
Q 1453 -91 1209 -44 
Q 966 3 703 97 
z
M 1959 2075 
Q 2384 2075 2632 2365 
Q 2881 2656 2881 3163 
Q 2881 3666 2632 3958 
Q 2384 4250 1959 4250 
Q 1534 4250 1286 3958 
Q 1038 3666 1038 3163 
Q 1038 2656 1286 2365 
Q 1534 2075 1959 2075 
z
" transform="scale(0.015625)"/>
       </defs>
       <use xlink:href="#DejaVuSans-32"/>
       <use xlink:href="#DejaVuSans-30" transform="translate(63.623047 0)"/>
       <use xlink:href="#DejaVuSans-31" transform="translate(127.246094 0)"/>
       <use xlink:href="#DejaVuSans-35" transform="translate(190.869141 0)"/>
       <use xlink:href="#DejaVuSans-2d" transform="translate(254.492188 0)"/>
       <use xlink:href="#DejaVuSans-30" transform="translate(290.576172 0)"/>
       <use xlink:href="#DejaVuSans-39" transform="translate(354.199219 0)"/>
      </g>
     </g>
    </g>
    <g id="xtick_4">
     <g id="line2d_4">
      <g>
       <use xlink:href="#m8dd1cfcf8c" x="173.768905" y="307.584" style="stroke: #000000; stroke-width: 0.8"/>
      </g>
     </g>
     <g id="text_4">
      <!-- 2016-01 -->
      <g transform="translate(160.947623 349.501817) rotate(-45) scale(0.1 -0.1)">
       <defs>
        <path id="DejaVuSans-36" d="M 2113 2584 
Q 1688 2584 1439 2293 
Q 1191 2003 1191 1497 
Q 1191 994 1439 701 
Q 1688 409 2113 409 
Q 2538 409 2786 701 
Q 3034 994 3034 1497 
Q 3034 2003 2786 2293 
Q 2538 2584 2113 2584 
z
M 3366 4563 
L 3366 3988 
Q 3128 4100 2886 4159 
Q 2644 4219 2406 4219 
Q 1781 4219 1451 3797 
Q 1122 3375 1075 2522 
Q 1259 2794 1537 2939 
Q 1816 3084 2150 3084 
Q 2853 3084 3261 2657 
Q 3669 2231 3669 1497 
Q 3669 778 3244 343 
Q 2819 -91 2113 -91 
Q 1303 -91 875 529 
Q 447 1150 447 2328 
Q 447 3434 972 4092 
Q 1497 4750 2381 4750 
Q 2619 4750 2861 4703 
Q 3103 4656 3366 4563 
z
" transform="scale(0.015625)"/>
       </defs>
       <use xlink:href="#DejaVuSans-32"/>
       <use xlink:href="#DejaVuSans-30" transform="translate(63.623047 0)"/>
       <use xlink:href="#DejaVuSans-31" transform="translate(127.246094 0)"/>
       <use xlink:href="#DejaVuSans-36" transform="translate(190.869141 0)"/>
       <use xlink:href="#DejaVuSans-2d" transform="translate(254.492188 0)"/>
       <use xlink:href="#DejaVuSans-30" transform="translate(290.576172 0)"/>
       <use xlink:href="#DejaVuSans-31" transform="translate(354.199219 0)"/>
      </g>
     </g>
    </g>
    <g id="xtick_5">
     <g id="line2d_5">
      <g>
       <use xlink:href="#m8dd1cfcf8c" x="207.172987" y="307.584" style="stroke: #000000; stroke-width: 0.8"/>
      </g>
     </g>
     <g id="text_5">
      <!-- 2016-05 -->
      <g transform="translate(194.351705 349.501817) rotate(-45) scale(0.1 -0.1)">
       <use xlink:href="#DejaVuSans-32"/>
       <use xlink:href="#DejaVuSans-30" transform="translate(63.623047 0)"/>
       <use xlink:href="#DejaVuSans-31" transform="translate(127.246094 0)"/>
       <use xlink:href="#DejaVuSans-36" transform="translate(190.869141 0)"/>
       <use xlink:href="#DejaVuSans-2d" transform="translate(254.492188 0)"/>
       <use xlink:href="#DejaVuSans-30" transform="translate(290.576172 0)"/>
       <use xlink:href="#DejaVuSans-35" transform="translate(354.199219 0)"/>
      </g>
     </g>
    </g>
    <g id="xtick_6">
     <g id="line2d_6">
      <g>
       <use xlink:href="#m8dd1cfcf8c" x="241.129202" y="307.584" style="stroke: #000000; stroke-width: 0.8"/>
      </g>
     </g>
     <g id="text_6">
      <!-- 2016-09 -->
      <g transform="translate(228.30792 349.501817) rotate(-45) scale(0.1 -0.1)">
       <use xlink:href="#DejaVuSans-32"/>
       <use xlink:href="#DejaVuSans-30" transform="translate(63.623047 0)"/>
       <use xlink:href="#DejaVuSans-31" transform="translate(127.246094 0)"/>
       <use xlink:href="#DejaVuSans-36" transform="translate(190.869141 0)"/>
       <use xlink:href="#DejaVuSans-2d" transform="translate(254.492188 0)"/>
       <use xlink:href="#DejaVuSans-30" transform="translate(290.576172 0)"/>
       <use xlink:href="#DejaVuSans-39" transform="translate(354.199219 0)"/>
      </g>
     </g>
    </g>
    <g id="xtick_7">
     <g id="line2d_7">
      <g>
       <use xlink:href="#m8dd1cfcf8c" x="274.809351" y="307.584" style="stroke: #000000; stroke-width: 0.8"/>
      </g>
     </g>
     <g id="text_7">
      <!-- 2017-01 -->
      <g transform="translate(261.988068 349.501817) rotate(-45) scale(0.1 -0.1)">
       <defs>
        <path id="DejaVuSans-37" d="M 525 4666 
L 3525 4666 
L 3525 4397 
L 1831 0 
L 1172 0 
L 2766 4134 
L 525 4134 
L 525 4666 
z
" transform="scale(0.015625)"/>
       </defs>
       <use xlink:href="#DejaVuSans-32"/>
       <use xlink:href="#DejaVuSans-30" transform="translate(63.623047 0)"/>
       <use xlink:href="#DejaVuSans-31" transform="translate(127.246094 0)"/>
       <use xlink:href="#DejaVuSans-37" transform="translate(190.869141 0)"/>
       <use xlink:href="#DejaVuSans-2d" transform="translate(254.492188 0)"/>
       <use xlink:href="#DejaVuSans-30" transform="translate(290.576172 0)"/>
       <use xlink:href="#DejaVuSans-31" transform="translate(354.199219 0)"/>
      </g>
     </g>
    </g>
    <g id="xtick_8">
     <g id="line2d_8">
      <g>
       <use xlink:href="#m8dd1cfcf8c" x="307.937365" y="307.584" style="stroke: #000000; stroke-width: 0.8"/>
      </g>
     </g>
     <g id="text_8">
      <!-- 2017-05 -->
      <g transform="translate(295.116083 349.501817) rotate(-45) scale(0.1 -0.1)">
       <use xlink:href="#DejaVuSans-32"/>
       <use xlink:href="#DejaVuSans-30" transform="translate(63.623047 0)"/>
       <use xlink:href="#DejaVuSans-31" transform="translate(127.246094 0)"/>
       <use xlink:href="#DejaVuSans-37" transform="translate(190.869141 0)"/>
       <use xlink:href="#DejaVuSans-2d" transform="translate(254.492188 0)"/>
       <use xlink:href="#DejaVuSans-30" transform="translate(290.576172 0)"/>
       <use xlink:href="#DejaVuSans-35" transform="translate(354.199219 0)"/>
      </g>
     </g>
    </g>
    <g id="xtick_9">
     <g id="line2d_9">
      <g>
       <use xlink:href="#m8dd1cfcf8c" x="341.893581" y="307.584" style="stroke: #000000; stroke-width: 0.8"/>
      </g>
     </g>
     <g id="text_9">
      <!-- 2017-09 -->
      <g transform="translate(329.072298 349.501817) rotate(-45) scale(0.1 -0.1)">
       <use xlink:href="#DejaVuSans-32"/>
       <use xlink:href="#DejaVuSans-30" transform="translate(63.623047 0)"/>
       <use xlink:href="#DejaVuSans-31" transform="translate(127.246094 0)"/>
       <use xlink:href="#DejaVuSans-37" transform="translate(190.869141 0)"/>
       <use xlink:href="#DejaVuSans-2d" transform="translate(254.492188 0)"/>
       <use xlink:href="#DejaVuSans-30" transform="translate(290.576172 0)"/>
       <use xlink:href="#DejaVuSans-39" transform="translate(354.199219 0)"/>
      </g>
     </g>
    </g>
    <g id="xtick_10">
     <g id="line2d_10">
      <g>
       <use xlink:href="#m8dd1cfcf8c" x="375.573729" y="307.584" style="stroke: #000000; stroke-width: 0.8"/>
      </g>
     </g>
     <g id="text_10">
      <!-- 2018-01 -->
      <g transform="translate(362.752447 349.501817) rotate(-45) scale(0.1 -0.1)">
       <defs>
        <path id="DejaVuSans-38" d="M 2034 2216 
Q 1584 2216 1326 1975 
Q 1069 1734 1069 1313 
Q 1069 891 1326 650 
Q 1584 409 2034 409 
Q 2484 409 2743 651 
Q 3003 894 3003 1313 
Q 3003 1734 2745 1975 
Q 2488 2216 2034 2216 
z
M 1403 2484 
Q 997 2584 770 2862 
Q 544 3141 544 3541 
Q 544 4100 942 4425 
Q 1341 4750 2034 4750 
Q 2731 4750 3128 4425 
Q 3525 4100 3525 3541 
Q 3525 3141 3298 2862 
Q 3072 2584 2669 2484 
Q 3125 2378 3379 2068 
Q 3634 1759 3634 1313 
Q 3634 634 3220 271 
Q 2806 -91 2034 -91 
Q 1263 -91 848 271 
Q 434 634 434 1313 
Q 434 1759 690 2068 
Q 947 2378 1403 2484 
z
M 1172 3481 
Q 1172 3119 1398 2916 
Q 1625 2713 2034 2713 
Q 2441 2713 2670 2916 
Q 2900 3119 2900 3481 
Q 2900 3844 2670 4047 
Q 2441 4250 2034 4250 
Q 1625 4250 1398 4047 
Q 1172 3844 1172 3481 
z
" transform="scale(0.015625)"/>
       </defs>
       <use xlink:href="#DejaVuSans-32"/>
       <use xlink:href="#DejaVuSans-30" transform="translate(63.623047 0)"/>
       <use xlink:href="#DejaVuSans-31" transform="translate(127.246094 0)"/>
       <use xlink:href="#DejaVuSans-38" transform="translate(190.869141 0)"/>
       <use xlink:href="#DejaVuSans-2d" transform="translate(254.492188 0)"/>
       <use xlink:href="#DejaVuSans-30" transform="translate(290.576172 0)"/>
       <use xlink:href="#DejaVuSans-31" transform="translate(354.199219 0)"/>
      </g>
     </g>
    </g>
    <g id="xtick_11">
     <g id="line2d_11">
      <g>
       <use xlink:href="#m8dd1cfcf8c" x="408.701744" y="307.584" style="stroke: #000000; stroke-width: 0.8"/>
      </g>
     </g>
     <g id="text_11">
      <!-- 2018-05 -->
      <g transform="translate(395.880462 349.501817) rotate(-45) scale(0.1 -0.1)">
       <use xlink:href="#DejaVuSans-32"/>
       <use xlink:href="#DejaVuSans-30" transform="translate(63.623047 0)"/>
       <use xlink:href="#DejaVuSans-31" transform="translate(127.246094 0)"/>
       <use xlink:href="#DejaVuSans-38" transform="translate(190.869141 0)"/>
       <use xlink:href="#DejaVuSans-2d" transform="translate(254.492188 0)"/>
       <use xlink:href="#DejaVuSans-30" transform="translate(290.576172 0)"/>
       <use xlink:href="#DejaVuSans-35" transform="translate(354.199219 0)"/>
      </g>
     </g>
    </g>
    <g id="text_12">
     <!-- Date -->
     <g transform="translate(224.209219 362.570815) scale(0.1 -0.1)">
      <defs>
       <path id="DejaVuSans-44" d="M 1259 4147 
L 1259 519 
L 2022 519 
Q 2988 519 3436 956 
Q 3884 1394 3884 2338 
Q 3884 3275 3436 3711 
Q 2988 4147 2022 4147 
L 1259 4147 
z
M 628 4666 
L 1925 4666 
Q 3281 4666 3915 4102 
Q 4550 3538 4550 2338 
Q 4550 1131 3912 565 
Q 3275 0 1925 0 
L 628 0 
L 628 4666 
z
" transform="scale(0.015625)"/>
       <path id="DejaVuSans-61" d="M 2194 1759 
Q 1497 1759 1228 1600 
Q 959 1441 959 1056 
Q 959 750 1161 570 
Q 1363 391 1709 391 
Q 2188 391 2477 730 
Q 2766 1069 2766 1631 
L 2766 1759 
L 2194 1759 
z
M 3341 1997 
L 3341 0 
L 2766 0 
L 2766 531 
Q 2569 213 2275 61 
Q 1981 -91 1556 -91 
Q 1019 -91 701 211 
Q 384 513 384 1019 
Q 384 1609 779 1909 
Q 1175 2209 1959 2209 
L 2766 2209 
L 2766 2266 
Q 2766 2663 2505 2880 
Q 2244 3097 1772 3097 
Q 1472 3097 1187 3025 
Q 903 2953 641 2809 
L 641 3341 
Q 956 3463 1253 3523 
Q 1550 3584 1831 3584 
Q 2591 3584 2966 3190 
Q 3341 2797 3341 1997 
z
" transform="scale(0.015625)"/>
       <path id="DejaVuSans-74" d="M 1172 4494 
L 1172 3500 
L 2356 3500 
L 2356 3053 
L 1172 3053 
L 1172 1153 
Q 1172 725 1289 603 
Q 1406 481 1766 481 
L 2356 481 
L 2356 0 
L 1766 0 
Q 1100 0 847 248 
Q 594 497 594 1153 
L 594 3053 
L 172 3053 
L 172 3500 
L 594 3500 
L 594 4494 
L 1172 4494 
z
" transform="scale(0.015625)"/>
       <path id="DejaVuSans-65" d="M 3597 1894 
L 3597 1613 
L 953 1613 
Q 991 1019 1311 708 
Q 1631 397 2203 397 
Q 2534 397 2845 478 
Q 3156 559 3463 722 
L 3463 178 
Q 3153 47 2828 -22 
Q 2503 -91 2169 -91 
Q 1331 -91 842 396 
Q 353 884 353 1716 
Q 353 2575 817 3079 
Q 1281 3584 2069 3584 
Q 2775 3584 3186 3129 
Q 3597 2675 3597 1894 
z
M 3022 2063 
Q 3016 2534 2758 2815 
Q 2500 3097 2075 3097 
Q 1594 3097 1305 2825 
Q 1016 2553 972 2059 
L 3022 2063 
z
" transform="scale(0.015625)"/>
      </defs>
      <use xlink:href="#DejaVuSans-44"/>
      <use xlink:href="#DejaVuSans-61" transform="translate(77.001953 0)"/>
      <use xlink:href="#DejaVuSans-74" transform="translate(138.28125 0)"/>
      <use xlink:href="#DejaVuSans-65" transform="translate(177.490234 0)"/>
     </g>
    </g>
   </g>
   <g id="matplotlib.axis_2">
    <g id="ytick_1">
     <g id="line2d_12">
      <defs>
       <path id="mc4408e6a5f" d="M 0 0 
L -3.5 0 
" style="stroke: #000000; stroke-width: 0.8"/>
      </defs>
      <g>
       <use xlink:href="#mc4408e6a5f" x="57.6" y="296.198173" style="stroke: #000000; stroke-width: 0.8"/>
      </g>
     </g>
     <g id="text_13">
      <!-- 0.0 -->
      <g transform="translate(34.696875 299.997392) scale(0.1 -0.1)">
       <defs>
        <path id="DejaVuSans-2e" d="M 684 794 
L 1344 794 
L 1344 0 
L 684 0 
L 684 794 
z
" transform="scale(0.015625)"/>
       </defs>
       <use xlink:href="#DejaVuSans-30"/>
       <use xlink:href="#DejaVuSans-2e" transform="translate(63.623047 0)"/>
       <use xlink:href="#DejaVuSans-30" transform="translate(95.410156 0)"/>
      </g>
     </g>
    </g>
    <g id="ytick_2">
     <g id="line2d_13">
      <g>
       <use xlink:href="#mc4408e6a5f" x="57.6" y="249.54668" style="stroke: #000000; stroke-width: 0.8"/>
      </g>
     </g>
     <g id="text_14">
      <!-- 0.2 -->
      <g transform="translate(34.696875 253.345899) scale(0.1 -0.1)">
       <use xlink:href="#DejaVuSans-30"/>
       <use xlink:href="#DejaVuSans-2e" transform="translate(63.623047 0)"/>
       <use xlink:href="#DejaVuSans-32" transform="translate(95.410156 0)"/>
      </g>
     </g>
    </g>
    <g id="ytick_3">
     <g id="line2d_14">
      <g>
       <use xlink:href="#mc4408e6a5f" x="57.6" y="202.895187" style="stroke: #000000; stroke-width: 0.8"/>
      </g>
     </g>
     <g id="text_15">
      <!-- 0.4 -->
      <g transform="translate(34.696875 206.694405) scale(0.1 -0.1)">
       <defs>
        <path id="DejaVuSans-34" d="M 2419 4116 
L 825 1625 
L 2419 1625 
L 2419 4116 
z
M 2253 4666 
L 3047 4666 
L 3047 1625 
L 3713 1625 
L 3713 1100 
L 3047 1100 
L 3047 0 
L 2419 0 
L 2419 1100 
L 313 1100 
L 313 1709 
L 2253 4666 
z
" transform="scale(0.015625)"/>
       </defs>
       <use xlink:href="#DejaVuSans-30"/>
       <use xlink:href="#DejaVuSans-2e" transform="translate(63.623047 0)"/>
       <use xlink:href="#DejaVuSans-34" transform="translate(95.410156 0)"/>
      </g>
     </g>
    </g>
    <g id="ytick_4">
     <g id="line2d_15">
      <g>
       <use xlink:href="#mc4408e6a5f" x="57.6" y="156.243693" style="stroke: #000000; stroke-width: 0.8"/>
      </g>
     </g>
     <g id="text_16">
      <!-- 0.6 -->
      <g transform="translate(34.696875 160.042912) scale(0.1 -0.1)">
       <use xlink:href="#DejaVuSans-30"/>
       <use xlink:href="#DejaVuSans-2e" transform="translate(63.623047 0)"/>
       <use xlink:href="#DejaVuSans-36" transform="translate(95.410156 0)"/>
      </g>
     </g>
    </g>
    <g id="ytick_5">
     <g id="line2d_16">
      <g>
       <use xlink:href="#mc4408e6a5f" x="57.6" y="109.5922" style="stroke: #000000; stroke-width: 0.8"/>
      </g>
     </g>
     <g id="text_17">
      <!-- 0.8 -->
      <g transform="translate(34.696875 113.391419) scale(0.1 -0.1)">
       <use xlink:href="#DejaVuSans-30"/>
       <use xlink:href="#DejaVuSans-2e" transform="translate(63.623047 0)"/>
       <use xlink:href="#DejaVuSans-38" transform="translate(95.410156 0)"/>
      </g>
     </g>
    </g>
    <g id="ytick_6">
     <g id="line2d_17">
      <g>
       <use xlink:href="#mc4408e6a5f" x="57.6" y="62.940707" style="stroke: #000000; stroke-width: 0.8"/>
      </g>
     </g>
     <g id="text_18">
      <!-- 1.0 -->
      <g transform="translate(34.696875 66.739926) scale(0.1 -0.1)">
       <use xlink:href="#DejaVuSans-31"/>
       <use xlink:href="#DejaVuSans-2e" transform="translate(63.623047 0)"/>
       <use xlink:href="#DejaVuSans-30" transform="translate(95.410156 0)"/>
      </g>
     </g>
    </g>
    <g id="text_19">
     <!-- Avocado Sales -->
     <g transform="translate(28.617187 210.617844) rotate(-90) scale(0.1 -0.1)">
      <defs>
       <path id="DejaVuSans-41" d="M 2188 4044 
L 1331 1722 
L 3047 1722 
L 2188 4044 
z
M 1831 4666 
L 2547 4666 
L 4325 0 
L 3669 0 
L 3244 1197 
L 1141 1197 
L 716 0 
L 50 0 
L 1831 4666 
z
" transform="scale(0.015625)"/>
       <path id="DejaVuSans-76" d="M 191 3500 
L 800 3500 
L 1894 563 
L 2988 3500 
L 3597 3500 
L 2284 0 
L 1503 0 
L 191 3500 
z
" transform="scale(0.015625)"/>
       <path id="DejaVuSans-6f" d="M 1959 3097 
Q 1497 3097 1228 2736 
Q 959 2375 959 1747 
Q 959 1119 1226 758 
Q 1494 397 1959 397 
Q 2419 397 2687 759 
Q 2956 1122 2956 1747 
Q 2956 2369 2687 2733 
Q 2419 3097 1959 3097 
z
M 1959 3584 
Q 2709 3584 3137 3096 
Q 3566 2609 3566 1747 
Q 3566 888 3137 398 
Q 2709 -91 1959 -91 
Q 1206 -91 779 398 
Q 353 888 353 1747 
Q 353 2609 779 3096 
Q 1206 3584 1959 3584 
z
" transform="scale(0.015625)"/>
       <path id="DejaVuSans-63" d="M 3122 3366 
L 3122 2828 
Q 2878 2963 2633 3030 
Q 2388 3097 2138 3097 
Q 1578 3097 1268 2742 
Q 959 2388 959 1747 
Q 959 1106 1268 751 
Q 1578 397 2138 397 
Q 2388 397 2633 464 
Q 2878 531 3122 666 
L 3122 134 
Q 2881 22 2623 -34 
Q 2366 -91 2075 -91 
Q 1284 -91 818 406 
Q 353 903 353 1747 
Q 353 2603 823 3093 
Q 1294 3584 2113 3584 
Q 2378 3584 2631 3529 
Q 2884 3475 3122 3366 
z
" transform="scale(0.015625)"/>
       <path id="DejaVuSans-64" d="M 2906 2969 
L 2906 4863 
L 3481 4863 
L 3481 0 
L 2906 0 
L 2906 525 
Q 2725 213 2448 61 
Q 2172 -91 1784 -91 
Q 1150 -91 751 415 
Q 353 922 353 1747 
Q 353 2572 751 3078 
Q 1150 3584 1784 3584 
Q 2172 3584 2448 3432 
Q 2725 3281 2906 2969 
z
M 947 1747 
Q 947 1113 1208 752 
Q 1469 391 1925 391 
Q 2381 391 2643 752 
Q 2906 1113 2906 1747 
Q 2906 2381 2643 2742 
Q 2381 3103 1925 3103 
Q 1469 3103 1208 2742 
Q 947 2381 947 1747 
z
" transform="scale(0.015625)"/>
       <path id="DejaVuSans-20" transform="scale(0.015625)"/>
       <path id="DejaVuSans-53" d="M 3425 4513 
L 3425 3897 
Q 3066 4069 2747 4153 
Q 2428 4238 2131 4238 
Q 1616 4238 1336 4038 
Q 1056 3838 1056 3469 
Q 1056 3159 1242 3001 
Q 1428 2844 1947 2747 
L 2328 2669 
Q 3034 2534 3370 2195 
Q 3706 1856 3706 1288 
Q 3706 609 3251 259 
Q 2797 -91 1919 -91 
Q 1588 -91 1214 -16 
Q 841 59 441 206 
L 441 856 
Q 825 641 1194 531 
Q 1563 422 1919 422 
Q 2459 422 2753 634 
Q 3047 847 3047 1241 
Q 3047 1584 2836 1778 
Q 2625 1972 2144 2069 
L 1759 2144 
Q 1053 2284 737 2584 
Q 422 2884 422 3419 
Q 422 4038 858 4394 
Q 1294 4750 2059 4750 
Q 2388 4750 2728 4690 
Q 3069 4631 3425 4513 
z
" transform="scale(0.015625)"/>
       <path id="DejaVuSans-6c" d="M 603 4863 
L 1178 4863 
L 1178 0 
L 603 0 
L 603 4863 
z
" transform="scale(0.015625)"/>
       <path id="DejaVuSans-73" d="M 2834 3397 
L 2834 2853 
Q 2591 2978 2328 3040 
Q 2066 3103 1784 3103 
Q 1356 3103 1142 2972 
Q 928 2841 928 2578 
Q 928 2378 1081 2264 
Q 1234 2150 1697 2047 
L 1894 2003 
Q 2506 1872 2764 1633 
Q 3022 1394 3022 966 
Q 3022 478 2636 193 
Q 2250 -91 1575 -91 
Q 1294 -91 989 -36 
Q 684 19 347 128 
L 347 722 
Q 666 556 975 473 
Q 1284 391 1588 391 
Q 1994 391 2212 530 
Q 2431 669 2431 922 
Q 2431 1156 2273 1281 
Q 2116 1406 1581 1522 
L 1381 1569 
Q 847 1681 609 1914 
Q 372 2147 372 2553 
Q 372 3047 722 3315 
Q 1072 3584 1716 3584 
Q 2034 3584 2315 3537 
Q 2597 3491 2834 3397 
z
" transform="scale(0.015625)"/>
      </defs>
      <use xlink:href="#DejaVuSans-41"/>
      <use xlink:href="#DejaVuSans-76" transform="translate(62.533203 0)"/>
      <use xlink:href="#DejaVuSans-6f" transform="translate(121.712891 0)"/>
      <use xlink:href="#DejaVuSans-63" transform="translate(182.894531 0)"/>
      <use xlink:href="#DejaVuSans-61" transform="translate(237.875 0)"/>
      <use xlink:href="#DejaVuSans-64" transform="translate(299.154297 0)"/>
      <use xlink:href="#DejaVuSans-6f" transform="translate(362.630859 0)"/>
      <use xlink:href="#DejaVuSans-20" transform="translate(423.8125 0)"/>
      <use xlink:href="#DejaVuSans-53" transform="translate(455.599609 0)"/>
      <use xlink:href="#DejaVuSans-61" transform="translate(519.076172 0)"/>
      <use xlink:href="#DejaVuSans-6c" transform="translate(580.355469 0)"/>
      <use xlink:href="#DejaVuSans-65" transform="translate(608.138672 0)"/>
      <use xlink:href="#DejaVuSans-73" transform="translate(669.662109 0)"/>
     </g>
    </g>
    <g id="text_20">
     <!-- 1e6 -->
     <g transform="translate(57.6 38.472) scale(0.1 -0.1)">
      <use xlink:href="#DejaVuSans-31"/>
      <use xlink:href="#DejaVuSans-65" transform="translate(63.623047 0)"/>
      <use xlink:href="#DejaVuSans-36" transform="translate(125.146484 0)"/>
     </g>
    </g>
   </g>
   <g id="line2d_18">
    <path d="M 73.832727 224.71284 
L 75.765195 229.19245 
L 77.697662 227.510962 
L 79.63013 226.425827 
L 81.562597 187.57581 
L 83.495065 220.34425 
L 85.427532 223.16626 
L 87.36 222.898693 
L 89.292468 218.632599 
L 91.224935 221.180636 
L 93.157403 220.380434 
L 95.08987 217.903027 
L 97.022338 224.281721 
L 98.954805 216.329536 
L 100.887273 212.066435 
L 102.81974 214.607051 
L 104.752208 216.56557 
L 106.684675 193.087505 
L 110.54961 212.796475 
L 112.482078 204.505738 
L 114.414545 207.007122 
L 116.347013 201.514412 
L 118.279481 202.21059 
L 120.211948 211.576319 
L 122.144416 219.870913 
L 124.076883 206.076726 
L 126.009351 225.298936 
L 127.941818 222.793312 
L 129.874286 226.029986 
L 131.806753 226.405458 
L 133.739221 220.869618 
L 135.671688 223.232809 
L 137.604156 231.386513 
L 139.536623 228.847742 
L 141.469091 223.977537 
L 143.401558 239.814061 
L 145.334026 242.077956 
L 147.266494 247.735831 
L 149.198961 248.455986 
L 153.063896 243.330745 
L 154.996364 246.615998 
L 156.928831 237.688122 
L 158.861299 238.30055 
L 160.793766 239.083938 
L 162.726234 247.149112 
L 164.658701 249.855303 
L 166.591169 241.790143 
L 168.523636 240.064625 
L 170.456104 246.491189 
L 172.388571 241.173859 
L 174.321039 230.345407 
L 176.253506 231.250433 
L 178.185974 239.524935 
L 180.118442 255.774964 
L 182.050909 233.86807 
L 183.983377 203.1488 
L 185.915844 229.339073 
L 187.848312 239.808214 
L 189.780779 229.121422 
L 191.713247 229.730809 
L 193.645714 230.895698 
L 195.578182 233.518354 
L 197.510649 232.663424 
L 199.443117 232.405883 
L 201.375584 223.445435 
L 203.308052 228.877018 
L 205.240519 223.04828 
L 207.172987 217.791601 
L 209.105455 216.208964 
L 211.037922 225.87711 
L 212.97039 230.521357 
L 214.902857 219.325268 
L 216.835325 218.182611 
L 218.767792 226.444238 
L 220.70026 219.58862 
L 222.632727 227.004241 
L 224.565195 224.699189 
L 228.43013 237.429462 
L 230.362597 237.261905 
L 232.295065 238.354021 
L 234.227532 226.816661 
L 236.16 226.082892 
L 238.092468 223.745274 
L 240.024935 224.89751 
L 241.957403 213.117048 
L 243.88987 222.241334 
L 245.822338 232.343771 
L 247.754805 236.153315 
L 249.687273 241.842882 
L 251.61974 242.21239 
L 253.552208 246.184975 
L 255.484675 253.135785 
L 257.417143 256.384132 
L 259.34961 252.356907 
L 261.282078 249.403068 
L 263.214545 247.395483 
L 265.147013 251.115425 
L 267.079481 234.022771 
L 269.011948 245.594437 
L 270.944416 243.132089 
L 272.876883 243.739605 
L 274.809351 225.609797 
L 276.741818 229.997069 
L 278.674286 223.401364 
L 280.606753 215.249766 
L 282.539221 216.9472 
L 284.471688 168.836893 
L 286.404156 210.929825 
L 288.336623 231.656777 
L 290.269091 222.17983 
L 292.201558 232.157636 
L 294.134026 232.976518 
L 296.066494 233.951091 
L 297.998961 229.724471 
L 299.931429 226.93751 
L 301.863896 228.109471 
L 303.796364 226.320688 
L 305.728831 227.238844 
L 307.661299 220.349482 
L 309.593766 199.855178 
L 311.526234 223.422929 
L 313.458701 227.313465 
L 315.391169 223.227309 
L 317.323636 220.977505 
L 319.256104 219.803007 
L 321.188571 221.697689 
L 323.121039 222.275422 
L 325.053506 224.459881 
L 326.985974 222.528246 
L 328.918442 232.603326 
L 330.850909 231.069027 
L 332.783377 232.825993 
L 334.715844 231.763738 
L 336.648312 233.637916 
L 338.580779 236.150119 
L 340.513247 235.494584 
L 342.445714 240.437159 
L 344.378182 241.977443 
L 346.310649 243.998744 
L 348.243117 246.766137 
L 350.175584 248.69066 
L 352.108052 245.470919 
L 354.040519 246.269684 
L 355.972987 241.526273 
L 357.905455 235.820575 
L 361.77039 230.788224 
L 363.702857 232.851566 
L 365.635325 243.927237 
L 367.567792 229.479233 
L 369.50026 228.647466 
L 371.432727 235.667729 
L 373.365195 239.297244 
L 375.297662 222.393288 
L 377.23013 218.753196 
L 379.162597 225.075554 
L 381.095065 215.966244 
L 383.027532 214.582653 
L 384.96 174.0558 
L 386.892468 206.475311 
L 388.824935 220.261289 
L 390.757403 218.226574 
L 392.68987 214.815959 
L 394.622338 216.254375 
L 396.554805 218.577876 
L 398.487273 216.749902 
L 398.487273 216.749902 
" clip-path="url(#pc5ca6d090d)" style="fill: none; stroke: #1f77b4; stroke-width: 1.5; stroke-linecap: square"/>
   </g>
   <g id="line2d_19">
    <path d="M 73.832727 216.607619 
L 75.765195 225.33881 
L 77.697662 227.814769 
L 79.63013 233.717305 
L 81.562597 186.704893 
L 83.495065 217.529532 
L 85.427532 238.929216 
L 87.36 229.89401 
L 89.292468 215.812349 
L 91.224935 231.783416 
L 93.157403 233.907148 
L 95.08987 221.682204 
L 97.022338 228.115487 
L 98.954805 228.547289 
L 100.887273 229.404998 
L 102.81974 223.825439 
L 104.752208 231.363189 
L 106.684675 198.866867 
L 108.617143 215.781121 
L 110.54961 231.126041 
L 112.482078 222.365899 
L 114.414545 227.203244 
L 116.347013 221.926833 
L 118.279481 220.627155 
L 120.211948 218.117307 
L 122.144416 228.261694 
L 124.076883 213.034158 
L 126.009351 223.652114 
L 127.941818 222.273212 
L 129.874286 226.273742 
L 131.806753 224.369657 
L 133.739221 214.304425 
L 135.671688 219.768227 
L 137.604156 222.289531 
L 139.536623 225.489614 
L 141.469091 213.064702 
L 143.401558 208.7308 
L 145.334026 215.205894 
L 147.266494 215.168599 
L 149.198961 215.28615 
L 151.131429 218.118906 
L 153.063896 212.745626 
L 154.996364 229.114411 
L 156.928831 211.705392 
L 158.861299 224.054137 
L 160.793766 226.932689 
L 162.726234 234.529112 
L 164.658701 242.807467 
L 166.591169 224.113109 
L 170.456104 240.992216 
L 172.388571 236.330796 
L 174.321039 202.662152 
L 176.253506 218.429354 
L 178.185974 214.589747 
L 180.118442 213.6037 
L 182.050909 217.853178 
L 183.983377 176.693938 
L 185.915844 217.832462 
L 187.848312 225.181361 
L 189.780779 217.437287 
L 191.713247 223.59292 
L 193.645714 218.081567 
L 195.578182 214.683037 
L 197.510649 220.476728 
L 199.443117 227.246299 
L 201.375584 227.116044 
L 203.308052 220.250696 
L 205.240519 209.792112 
L 207.172987 201.262618 
L 209.105455 189.211377 
L 211.037922 210.045474 
L 212.97039 218.628832 
L 214.902857 213.295998 
L 216.835325 216.713367 
L 218.767792 227.527997 
L 220.70026 220.249056 
L 222.632727 224.367498 
L 224.565195 218.061184 
L 226.497662 227.529422 
L 228.43013 233.401227 
L 230.362597 232.535607 
L 232.295065 234.76251 
L 234.227532 232.794397 
L 236.16 231.4442 
L 238.092468 237.241854 
L 240.024935 234.115195 
L 241.957403 230.327374 
L 243.88987 234.049877 
L 245.822338 240.196018 
L 247.754805 241.308787 
L 249.687273 241.844381 
L 251.61974 239.046657 
L 255.484675 248.157702 
L 257.417143 254.649323 
L 259.34961 253.547836 
L 261.282078 249.837573 
L 263.214545 247.965259 
L 265.147013 252.197059 
L 267.079481 237.372678 
L 269.011948 236.671886 
L 270.944416 234.547166 
L 272.876883 235.662016 
L 274.809351 213.091039 
L 276.741818 214.094482 
L 278.674286 221.856488 
L 280.606753 212.291875 
L 282.539221 227.012539 
L 284.471688 176.385427 
L 286.404156 223.809431 
L 288.336623 232.839623 
L 290.269091 228.228789 
L 292.201558 231.126596 
L 294.134026 238.867137 
L 296.066494 238.280861 
L 297.998961 238.428458 
L 299.931429 237.542262 
L 301.863896 231.770236 
L 303.796364 235.585639 
L 305.728831 235.043077 
L 307.661299 228.517498 
L 309.593766 215.483031 
L 311.526234 237.937199 
L 313.458701 235.032803 
L 315.391169 231.072838 
L 317.323636 235.265917 
L 319.256104 235.910846 
L 321.188571 228.488501 
L 323.121039 231.190389 
L 325.053506 231.306427 
L 328.918442 230.260605 
L 330.850909 229.345689 
L 332.783377 231.165217 
L 334.715844 231.991438 
L 336.648312 231.132894 
L 338.580779 244.078125 
L 340.513247 245.336708 
L 342.445714 245.202996 
L 344.378182 246.367805 
L 348.243117 246.534001 
L 350.175584 246.261244 
L 352.108052 250.462218 
L 354.040519 245.172662 
L 355.972987 243.914756 
L 357.905455 237.709712 
L 359.837922 238.108729 
L 361.77039 236.89866 
L 363.702857 249.442163 
L 365.635325 252.456394 
L 367.567792 231.446331 
L 369.50026 226.026508 
L 371.432727 236.670815 
L 373.365195 242.938693 
L 375.297662 218.356072 
L 377.23013 231.996879 
L 379.162597 225.998221 
L 381.095065 212.989681 
L 383.027532 223.167143 
L 384.96 174.76649 
L 386.892468 226.995556 
L 388.824935 231.19701 
L 390.757403 233.884251 
L 392.68987 227.861315 
L 394.622338 231.129392 
L 396.554805 229.528792 
L 398.487273 224.189687 
L 398.487273 224.189687 
" clip-path="url(#pc5ca6d090d)" style="fill: none; stroke: #ff7f0e; stroke-width: 1.5; stroke-linecap: square"/>
   </g>
   <g id="line2d_20">
    <path d="M 73.832727 291.2764 
L 75.765195 291.124462 
L 79.63013 291.709309 
L 81.562597 288.233966 
L 83.495065 291.882064 
L 87.36 290.75312 
L 89.292468 290.006507 
L 91.224935 291.358001 
L 93.157403 291.169238 
L 95.08987 290.058607 
L 97.022338 291.493516 
L 98.954805 291.189798 
L 100.887273 291.567862 
L 102.81974 290.404927 
L 104.752208 291.051087 
L 106.684675 289.641327 
L 108.617143 291.173232 
L 110.54961 290.478849 
L 112.482078 290.928035 
L 114.414545 290.867833 
L 116.347013 289.632894 
L 118.279481 289.957479 
L 120.211948 288.639584 
L 122.144416 290.21236 
L 124.076883 288.513381 
L 126.009351 290.499425 
L 127.941818 289.554626 
L 129.874286 290.367424 
L 131.806753 290.55021 
L 133.739221 290.33323 
L 135.671688 289.566794 
L 137.604156 290.869786 
L 139.536623 290.047775 
L 141.469091 289.570199 
L 145.334026 289.68385 
L 147.266494 289.99993 
L 149.198961 289.207899 
L 151.131429 286.944767 
L 153.063896 289.157768 
L 154.996364 289.288819 
L 156.928831 288.030692 
L 158.861299 289.595718 
L 160.793766 291.458349 
L 162.726234 291.547003 
L 164.658701 291.972685 
L 166.591169 290.761156 
L 168.523636 290.351063 
L 170.456104 289.36165 
L 172.388571 289.456969 
L 174.321039 287.153766 
L 176.253506 288.818526 
L 178.185974 288.016576 
L 180.118442 287.877607 
L 182.050909 286.885747 
L 183.983377 281.930038 
L 185.915844 285.941291 
L 187.848312 288.412936 
L 189.780779 287.296964 
L 193.645714 286.124028 
L 195.578182 286.242479 
L 197.510649 285.637915 
L 199.443117 286.45856 
L 201.375584 286.731017 
L 203.308052 285.493966 
L 205.240519 287.070467 
L 207.172987 288.063378 
L 209.105455 284.766145 
L 211.037922 286.304141 
L 212.97039 286.691983 
L 214.902857 286.94429 
L 216.835325 285.9145 
L 218.767792 286.885088 
L 220.70026 286.748315 
L 222.632727 286.862899 
L 224.565195 286.146923 
L 226.497662 288.90427 
L 228.43013 290.647596 
L 230.362597 290.684561 
L 232.295065 291.606845 
L 236.16 291.820811 
L 238.092468 292.645771 
L 243.88987 293.168549 
L 245.822338 293.310128 
L 249.687273 293.260517 
L 251.61974 293.271152 
L 253.552208 293.531128 
L 257.417143 293.468292 
L 259.34961 293.154526 
L 261.282078 293.327868 
L 265.147013 294.126489 
L 267.079481 293.63694 
L 269.011948 293.746428 
L 270.944416 293.601549 
L 272.876883 292.882257 
L 276.741818 292.931767 
L 278.674286 292.65783 
L 280.606753 290.639578 
L 282.539221 291.336987 
L 284.471688 286.341492 
L 286.404156 291.169246 
L 288.336623 291.407498 
L 290.269091 291.046557 
L 292.201558 291.556387 
L 296.066494 292.433944 
L 297.998961 292.592507 
L 303.796364 292.351303 
L 305.728831 292.574225 
L 307.661299 292.242895 
L 309.593766 291.142706 
L 311.526234 292.329295 
L 313.458701 292.522782 
L 315.391169 292.249329 
L 319.256104 292.40859 
L 321.188571 291.509331 
L 323.121039 292.330057 
L 325.053506 291.246422 
L 328.918442 291.790511 
L 330.850909 292.579232 
L 332.783377 292.674169 
L 334.715844 292.293171 
L 338.580779 292.754819 
L 340.513247 293.119776 
L 342.445714 292.987094 
L 348.243117 293.959994 
L 355.972987 293.752129 
L 357.905455 293.661662 
L 359.837922 293.824092 
L 361.77039 293.711893 
L 363.702857 293.727176 
L 365.635325 293.929331 
L 367.567792 292.826587 
L 369.50026 293.831348 
L 371.432727 292.865782 
L 373.365195 292.985376 
L 375.297662 292.458716 
L 377.23013 292.226544 
L 379.162597 292.35056 
L 381.095065 290.875927 
L 383.027532 292.807012 
L 384.96 290.147467 
L 386.892468 292.364265 
L 388.824935 292.931838 
L 390.757403 292.014028 
L 392.68987 292.859012 
L 394.622338 292.080129 
L 396.554805 292.409816 
L 398.487273 291.781862 
L 398.487273 291.781862 
" clip-path="url(#pc5ca6d090d)" style="fill: none; stroke: #2ca02c; stroke-width: 1.5; stroke-linecap: square"/>
   </g>
   <g id="patch_3">
    <path d="M 57.6 307.584 
L 57.6 41.472 
" style="fill: none; stroke: #000000; stroke-width: 0.8; stroke-linejoin: miter; stroke-linecap: square"/>
   </g>
   <g id="patch_4">
    <path d="M 414.72 307.584 
L 414.72 41.472 
" style="fill: none; stroke: #000000; stroke-width: 0.8; stroke-linejoin: miter; stroke-linecap: square"/>
   </g>
   <g id="patch_5">
    <path d="M 57.6 307.584 
L 414.72 307.584 
" style="fill: none; stroke: #000000; stroke-width: 0.8; stroke-linejoin: miter; stroke-linecap: square"/>
   </g>
   <g id="patch_6">
    <path d="M 57.6 41.472 
L 414.72 41.472 
" style="fill: none; stroke: #000000; stroke-width: 0.8; stroke-linejoin: miter; stroke-linecap: square"/>
   </g>
   <g id="legend_1">
    <g id="patch_7">
     <path d="M 207.435 93.506375 
L 264.885 93.506375 
Q 266.885 93.506375 266.885 91.506375 
L 266.885 48.472 
Q 266.885 46.472 264.885 46.472 
L 207.435 46.472 
Q 205.435 46.472 205.435 48.472 
L 205.435 91.506375 
Q 205.435 93.506375 207.435 93.506375 
z
" style="fill: #ffffff; opacity: 0.8; stroke: #cccccc; stroke-linejoin: miter"/>
    </g>
    <g id="line2d_21">
     <path d="M 209.435 54.570438 
L 219.435 54.570438 
L 229.435 54.570438 
" style="fill: none; stroke: #1f77b4; stroke-width: 1.5; stroke-linecap: square"/>
    </g>
    <g id="text_21">
     <!-- 4046 -->
     <g transform="translate(237.435 58.070438) scale(0.1 -0.1)">
      <use xlink:href="#DejaVuSans-34"/>
      <use xlink:href="#DejaVuSans-30" transform="translate(63.623047 0)"/>
      <use xlink:href="#DejaVuSans-34" transform="translate(127.246094 0)"/>
      <use xlink:href="#DejaVuSans-36" transform="translate(190.869141 0)"/>
     </g>
    </g>
    <g id="line2d_22">
     <path d="M 209.435 69.248563 
L 219.435 69.248563 
L 229.435 69.248563 
" style="fill: none; stroke: #ff7f0e; stroke-width: 1.5; stroke-linecap: square"/>
    </g>
    <g id="text_22">
     <!-- 4225 -->
     <g transform="translate(237.435 72.748563) scale(0.1 -0.1)">
      <use xlink:href="#DejaVuSans-34"/>
      <use xlink:href="#DejaVuSans-32" transform="translate(63.623047 0)"/>
      <use xlink:href="#DejaVuSans-32" transform="translate(127.246094 0)"/>
      <use xlink:href="#DejaVuSans-35" transform="translate(190.869141 0)"/>
     </g>
    </g>
    <g id="line2d_23">
     <path d="M 209.435 83.926688 
L 219.435 83.926688 
L 229.435 83.926688 
" style="fill: none; stroke: #2ca02c; stroke-width: 1.5; stroke-linecap: square"/>
    </g>
    <g id="text_23">
     <!-- 4770 -->
     <g transform="translate(237.435 87.426688) scale(0.1 -0.1)">
      <use xlink:href="#DejaVuSans-34"/>
      <use xlink:href="#DejaVuSans-37" transform="translate(63.623047 0)"/>
      <use xlink:href="#DejaVuSans-37" transform="translate(127.246094 0)"/>
      <use xlink:href="#DejaVuSans-30" transform="translate(190.869141 0)"/>
     </g>
    </g>
   </g>
  </g>
 </g>
 <defs>
  <clipPath id="pc5ca6d090d">
   <rect x="57.6" y="41.472" width="357.12" height="266.112"/>
  </clipPath>
 </defs>
</svg>
